<svg xmlns="http://www.w3.org/2000/svg" xmlns:xlink="http://www.w3.org/1999/xlink" width="432" zoomAndPan="magnify" viewBox="0 0 324 87.749997" height="117" preserveAspectRatio="xMidYMid meet" version="1.0"><defs><clipPath id="100ac95418"><path d="M 13 45 L 73 45 L 73 68 L 13 68 Z M 13 45 " clip-rule="nonzero"/></clipPath><clipPath id="7c43294565"><path d="M 29.921875 45.902344 C 20.851562 48.882812 13.957031 56.675781 13.71875 60.527344 C 19.972656 58.777344 27.566406 61.363281 35.046875 64.429688 C 42.382812 68.457031 53.109375 67.144531 60.355469 65.167969 C 64.484375 64.046875 68.96875 60.839844 71.566406 58.324219 C 72.722656 57.195312 72.253906 56.070312 70.847656 55.433594 C 69.566406 54.859375 67.820312 55.226562 67.066406 56.085938 C 63.132812 59.820312 53.921875 60.558594 48.8125 59.9375 C 43.132812 59.25 38.457031 56.359375 35.917969 52.949219 C 41.292969 55.585938 46.140625 56.332031 50.4375 56.007812 C 51.207031 55.917969 54.425781 54.421875 52.445312 52.050781 C 45.292969 50.683594 40.59375 45.222656 33.996094 45.222656 C 32.71875 45.222656 31.371094 45.425781 29.921875 45.902344 Z M 60.4375 49.238281 C 58.457031 50.976562 55.265625 55.851562 50.140625 58.171875 C 55.183594 57.6875 59.726562 54.921875 62.460938 50.660156 C 62.882812 49.898438 62.5625 48.648438 61.65625 48.648438 C 61.328125 48.648438 60.917969 48.816406 60.4375 49.238281 Z M 65.339844 50.644531 C 63.109375 52.285156 59.625 57.007812 53.332031 58.652344 C 58.941406 59.007812 64.378906 56.644531 67.941406 52.300781 C 68.25 51.195312 67.652344 50.152344 66.636719 50.152344 C 66.253906 50.152344 65.816406 50.300781 65.339844 50.644531 Z M 65.339844 50.644531 " clip-rule="evenodd"/></clipPath><linearGradient x1="51582.405856" gradientTransform="matrix(0.00136608, 0, 0, 0.0013653, 0.483669, -0.000000997159)" y1="30559.083298" x2="10355.030553" gradientUnits="userSpaceOnUse" y2="51457.611805" id="fc8f5f7a38"><stop stop-opacity="1" stop-color="rgb(69.799805%, 51.368713%, 31.759644%)" offset="0"/><stop stop-opacity="1" stop-color="rgb(69.752502%, 51.318359%, 31.730652%)" offset="0.125"/><stop stop-opacity="1" stop-color="rgb(69.610596%, 51.167297%, 31.645203%)" offset="0.15625"/><stop stop-opacity="1" stop-color="rgb(69.418335%, 50.96283%, 31.530762%)" offset="0.166477"/><stop stop-opacity="1" stop-color="rgb(69.322205%, 50.860596%, 31.474304%)" offset="0.1875"/><stop stop-opacity="1" stop-color="rgb(69.226074%, 50.758362%, 31.416321%)" offset="0.21875"/><stop stop-opacity="1" stop-color="rgb(69.033813%, 50.552368%, 31.300354%)" offset="0.25"/><stop stop-opacity="1" stop-color="rgb(68.841553%, 50.3479%, 31.185913%)" offset="0.28125"/><stop stop-opacity="1" stop-color="rgb(68.649292%, 50.143433%, 31.069946%)" offset="0.3125"/><stop stop-opacity="1" stop-color="rgb(68.457031%, 49.937439%, 30.955505%)" offset="0.34375"/><stop stop-opacity="1" stop-color="rgb(68.264771%, 49.732971%, 30.841064%)" offset="0.375"/><stop stop-opacity="1" stop-color="rgb(68.07251%, 49.528503%, 30.725098%)" offset="0.40625"/><stop stop-opacity="1" stop-color="rgb(67.880249%, 49.32251%, 30.610657%)" offset="0.4375"/><stop stop-opacity="1" stop-color="rgb(67.687988%, 49.118042%, 30.49469%)" offset="0.46875"/><stop stop-opacity="1" stop-color="rgb(67.495728%, 48.913574%, 30.380249%)" offset="0.5"/><stop stop-opacity="1" stop-color="rgb(67.303467%, 48.709106%, 30.265808%)" offset="0.53125"/><stop stop-opacity="1" stop-color="rgb(67.111206%, 48.503113%, 30.149841%)" offset="0.5625"/><stop stop-opacity="1" stop-color="rgb(66.920471%, 48.298645%, 30.0354%)" offset="0.59375"/><stop stop-opacity="1" stop-color="rgb(66.72821%, 48.094177%, 29.919434%)" offset="0.625"/><stop stop-opacity="1" stop-color="rgb(66.53595%, 47.888184%, 29.804993%)" offset="0.65625"/><stop stop-opacity="1" stop-color="rgb(66.343689%, 47.683716%, 29.690552%)" offset="0.6875"/><stop stop-opacity="1" stop-color="rgb(66.151428%, 47.479248%, 29.574585%)" offset="0.71875"/><stop stop-opacity="1" stop-color="rgb(65.959167%, 47.273254%, 29.460144%)" offset="0.75"/><stop stop-opacity="1" stop-color="rgb(65.766907%, 47.068787%, 29.344177%)" offset="0.78125"/><stop stop-opacity="1" stop-color="rgb(65.574646%, 46.864319%, 29.229736%)" offset="0.8125"/><stop stop-opacity="1" stop-color="rgb(65.382385%, 46.659851%, 29.115295%)" offset="0.833523"/><stop stop-opacity="1" stop-color="rgb(65.286255%, 46.557617%, 29.057312%)" offset="0.84375"/><stop stop-opacity="1" stop-color="rgb(65.190125%, 46.453857%, 28.999329%)" offset="0.875"/><stop stop-opacity="1" stop-color="rgb(64.997864%, 46.24939%, 28.884888%)" offset="0.90625"/><stop stop-opacity="1" stop-color="rgb(64.805603%, 46.044922%, 28.768921%)" offset="0.9375"/><stop stop-opacity="1" stop-color="rgb(64.613342%, 45.838928%, 28.65448%)" offset="0.96875"/><stop stop-opacity="1" stop-color="rgb(64.421082%, 45.63446%, 28.540039%)" offset="1"/></linearGradient></defs><g clip-path="url(#100ac95418)"><g clip-path="url(#7c43294565)"><path fill="url(#fc8f5f7a38)" d="M 13.71875 45.222656 L 13.71875 68.457031 L 72.722656 68.457031 L 72.722656 45.222656 Z M 13.71875 45.222656 " fill-rule="nonzero"/></g></g><path fill="#56923b" d="M 60.964844 23 C 60.253906 24.308594 58.992188 26.105469 57.015625 27.234375 C 54.917969 28.433594 52.417969 28.667969 49.582031 27.941406 C 49.679688 27.828125 49.796875 27.695312 49.941406 27.546875 C 50.085938 27.394531 50.25 27.226562 50.441406 27.046875 C 50.628906 26.867188 50.835938 26.679688 51.0625 26.488281 C 51.289062 26.292969 51.53125 26.097656 51.792969 25.898438 C 52.050781 25.703125 52.324219 25.511719 52.609375 25.320312 C 52.894531 25.132812 53.191406 24.953125 53.496094 24.777344 C 53.796875 24.605469 54.105469 24.445312 54.414062 24.296875 C 54.722656 24.148438 55.035156 24.011719 55.335938 23.886719 C 55.640625 23.765625 55.9375 23.660156 56.222656 23.566406 C 56.507812 23.472656 56.78125 23.390625 57.035156 23.324219 C 57.289062 23.253906 57.523438 23.199219 57.734375 23.15625 C 57.785156 23.144531 57.835938 23.132812 57.886719 23.121094 C 57.933594 23.113281 57.980469 23.105469 58.027344 23.09375 C 58.070312 23.085938 58.117188 23.078125 58.15625 23.070312 C 58.199219 23.0625 58.238281 23.054688 58.277344 23.046875 C 58.351562 23.035156 58.421875 23.023438 58.480469 23.011719 C 58.539062 23.003906 58.589844 22.996094 58.628906 22.992188 C 58.710938 22.976562 58.753906 22.972656 58.753906 22.972656 C 58.753906 22.972656 58.710938 22.976562 58.628906 22.984375 C 58.585938 22.988281 58.535156 22.992188 58.476562 23 C 58.417969 23.003906 58.347656 23.011719 58.273438 23.023438 C 58.234375 23.027344 58.195312 23.03125 58.152344 23.035156 C 58.109375 23.042969 58.066406 23.046875 58.019531 23.054688 C 57.972656 23.0625 57.925781 23.066406 57.875 23.074219 C 57.828125 23.082031 57.777344 23.089844 57.722656 23.097656 C 57.511719 23.132812 57.273438 23.175781 57.015625 23.230469 C 56.753906 23.28125 56.476562 23.351562 56.183594 23.429688 C 55.890625 23.507812 55.582031 23.597656 55.269531 23.707031 C 54.957031 23.8125 54.632812 23.933594 54.3125 24.066406 C 53.992188 24.203125 53.667969 24.351562 53.351562 24.507812 C 53.03125 24.667969 52.71875 24.835938 52.417969 25.011719 C 52.117188 25.1875 51.824219 25.371094 51.546875 25.558594 C 51.269531 25.746094 51.007812 25.933594 50.765625 26.117188 C 50.519531 26.304688 50.296875 26.488281 50.09375 26.660156 C 49.96875 26.765625 49.855469 26.867188 49.746094 26.964844 C 50.082031 26.15625 50.667969 25.050781 51.628906 23.996094 C 54.011719 21.382812 57.480469 20.285156 61.949219 20.726562 C 61.804688 21.175781 61.492188 22.03125 60.964844 23 Z M 62.386719 20.152344 C 59.726562 19.847656 57.351562 20.066406 55.332031 20.808594 C 53.707031 21.402344 52.308594 22.335938 51.175781 23.582031 C 50.167969 24.6875 49.5625 25.839844 49.230469 26.609375 C 48.867188 27.449219 48.746094 28.027344 48.742188 28.050781 L 48.683594 28.328125 L 48.957031 28.40625 C 49.3125 28.511719 49.664062 28.597656 50.007812 28.671875 C 52.769531 29.269531 55.226562 28.964844 57.324219 27.765625 C 58.257812 27.234375 59.117188 26.519531 59.882812 25.648438 C 60.492188 24.953125 61.039062 24.15625 61.515625 23.277344 C 62.324219 21.78125 62.632812 20.585938 62.648438 20.535156 L 62.734375 20.195312 Z M 62.386719 20.152344 " fill-opacity="1" fill-rule="nonzero"/><path fill="#83bc32" d="M 51.628906 23.996094 C 50.667969 25.050781 50.082031 26.15625 49.746094 26.964844 C 49.855469 26.867188 49.96875 26.765625 50.09375 26.660156 C 50.296875 26.488281 50.519531 26.304688 50.765625 26.117188 C 51.007812 25.933594 51.269531 25.746094 51.546875 25.558594 C 51.824219 25.371094 52.117188 25.1875 52.417969 25.011719 C 52.71875 24.835938 53.03125 24.667969 53.351562 24.507812 C 53.667969 24.351562 53.992188 24.203125 54.3125 24.066406 C 54.632812 23.933594 54.957031 23.8125 55.269531 23.707031 C 55.582031 23.597656 55.890625 23.507812 56.183594 23.429688 C 56.476562 23.351562 56.753906 23.28125 57.011719 23.230469 C 57.273438 23.175781 57.511719 23.132812 57.722656 23.097656 C 57.777344 23.089844 57.828125 23.082031 57.875 23.074219 C 57.925781 23.066406 57.972656 23.0625 58.019531 23.054688 C 58.066406 23.046875 58.109375 23.042969 58.152344 23.035156 C 58.195312 23.03125 58.234375 23.027344 58.273438 23.023438 C 58.347656 23.011719 58.417969 23.003906 58.476562 23 C 58.535156 22.992188 58.585938 22.988281 58.628906 22.984375 C 58.710938 22.976562 58.753906 22.972656 58.753906 22.972656 C 58.753906 22.972656 58.710938 22.976562 58.628906 22.992188 C 58.589844 22.996094 58.539062 23.003906 58.480469 23.011719 C 58.417969 23.023438 58.351562 23.035156 58.277344 23.046875 C 58.238281 23.054688 58.199219 23.0625 58.15625 23.070312 C 58.117188 23.078125 58.070312 23.085938 58.027344 23.09375 C 57.980469 23.105469 57.933594 23.113281 57.886719 23.121094 C 57.835938 23.132812 57.785156 23.144531 57.734375 23.15625 C 57.523438 23.199219 57.289062 23.253906 57.035156 23.324219 C 56.78125 23.390625 56.507812 23.472656 56.222656 23.566406 C 55.9375 23.660156 55.640625 23.765625 55.335938 23.890625 C 55.035156 24.011719 54.722656 24.148438 54.414062 24.296875 C 54.105469 24.445312 53.796875 24.605469 53.496094 24.777344 C 53.191406 24.953125 52.894531 25.132812 52.609375 25.320312 C 52.324219 25.511719 52.050781 25.703125 51.792969 25.898438 C 51.53125 26.097656 51.289062 26.292969 51.0625 26.488281 C 50.835938 26.679688 50.628906 26.867188 50.441406 27.046875 C 50.25 27.226562 50.085938 27.394531 49.941406 27.546875 C 49.796875 27.695312 49.679688 27.828125 49.582031 27.941406 C 52.417969 28.667969 54.917969 28.433594 57.015625 27.234375 C 58.992188 26.105469 60.253906 24.308594 60.964844 23 C 61.492188 22.03125 61.804688 21.175781 61.949219 20.726562 C 57.480469 20.285156 54.011719 21.382812 51.628906 23.996094 Z M 51.628906 23.996094 " fill-opacity="1" fill-rule="nonzero"/><path fill="#56923b" d="M 36.613281 17.195312 C 40.339844 17.640625 42.972656 19.164062 44.445312 21.722656 C 45.042969 22.757812 45.316406 23.765625 45.445312 24.484375 C 45.375 24.386719 45.300781 24.28125 45.21875 24.171875 C 45.085938 23.996094 44.933594 23.804688 44.769531 23.609375 C 44.601562 23.414062 44.421875 23.214844 44.230469 23.011719 C 44.039062 22.808594 43.832031 22.609375 43.617188 22.410156 C 43.40625 22.210938 43.179688 22.015625 42.949219 21.832031 C 42.71875 21.644531 42.480469 21.464844 42.242188 21.296875 C 42.003906 21.128906 41.765625 20.976562 41.527344 20.832031 C 41.292969 20.6875 41.058594 20.558594 40.832031 20.441406 C 40.609375 20.324219 40.390625 20.21875 40.191406 20.128906 C 39.988281 20.039062 39.800781 19.957031 39.636719 19.894531 C 39.59375 19.878906 39.554688 19.863281 39.515625 19.847656 C 39.476562 19.832031 39.4375 19.816406 39.402344 19.804688 C 39.363281 19.792969 39.328125 19.777344 39.296875 19.765625 C 39.261719 19.753906 39.230469 19.742188 39.199219 19.734375 C 39.140625 19.710938 39.085938 19.691406 39.039062 19.675781 C 38.992188 19.660156 38.949219 19.648438 38.917969 19.636719 C 38.851562 19.617188 38.816406 19.605469 38.816406 19.605469 C 38.816406 19.605469 38.851562 19.617188 38.914062 19.644531 C 38.949219 19.65625 38.988281 19.671875 39.035156 19.6875 C 39.082031 19.707031 39.132812 19.730469 39.191406 19.753906 C 39.222656 19.765625 39.253906 19.777344 39.285156 19.792969 C 39.320312 19.804688 39.351562 19.820312 39.386719 19.835938 C 39.421875 19.851562 39.460938 19.867188 39.5 19.882812 C 39.535156 19.902344 39.574219 19.917969 39.617188 19.9375 C 39.78125 20.011719 39.960938 20.101562 40.15625 20.199219 C 40.351562 20.300781 40.558594 20.417969 40.773438 20.542969 C 40.992188 20.671875 41.214844 20.8125 41.441406 20.96875 C 41.664062 21.121094 41.894531 21.289062 42.117188 21.464844 C 42.34375 21.644531 42.566406 21.832031 42.78125 22.027344 C 43 22.21875 43.207031 22.421875 43.40625 22.628906 C 43.605469 22.832031 43.792969 23.039062 43.96875 23.246094 C 44.144531 23.453125 44.3125 23.65625 44.460938 23.855469 C 44.609375 24.054688 44.746094 24.246094 44.867188 24.425781 C 44.988281 24.605469 45.09375 24.773438 45.183594 24.921875 C 45.273438 25.070312 45.347656 25.199219 45.40625 25.308594 C 42.960938 25.394531 40.964844 24.75 39.46875 23.394531 C 38.058594 22.117188 37.351562 20.425781 37.007812 19.230469 C 36.75 18.34375 36.652344 17.589844 36.613281 17.195312 Z M 36.070312 16.621094 L 36.078125 16.914062 C 36.082031 16.960938 36.117188 17.992188 36.507812 19.355469 C 36.738281 20.160156 37.042969 20.90625 37.414062 21.585938 C 37.882812 22.433594 38.453125 23.171875 39.121094 23.773438 C 40.613281 25.128906 42.566406 25.820312 44.925781 25.828125 C 45.222656 25.832031 45.523438 25.820312 45.832031 25.800781 L 46.066406 25.785156 L 46.070312 25.550781 C 46.070312 25.527344 46.078125 25.035156 45.933594 24.285156 C 45.800781 23.597656 45.515625 22.550781 44.890625 21.464844 C 44.191406 20.246094 43.214844 19.234375 41.996094 18.453125 C 40.484375 17.484375 38.585938 16.878906 36.363281 16.652344 Z M 36.070312 16.621094 " fill-opacity="1" fill-rule="nonzero"/><path fill="#83bc32" d="M 44.445312 21.722656 C 45.042969 22.757812 45.316406 23.765625 45.445312 24.484375 C 45.375 24.386719 45.300781 24.28125 45.21875 24.171875 C 45.085938 23.996094 44.933594 23.804688 44.769531 23.609375 C 44.601562 23.414062 44.421875 23.214844 44.230469 23.011719 C 44.039062 22.808594 43.832031 22.609375 43.617188 22.410156 C 43.40625 22.210938 43.179688 22.015625 42.949219 21.832031 C 42.71875 21.644531 42.480469 21.464844 42.242188 21.296875 C 42.003906 21.128906 41.765625 20.976562 41.527344 20.832031 C 41.292969 20.6875 41.058594 20.558594 40.832031 20.441406 C 40.609375 20.324219 40.390625 20.21875 40.191406 20.128906 C 39.988281 20.039062 39.800781 19.957031 39.636719 19.894531 C 39.59375 19.878906 39.554688 19.863281 39.515625 19.847656 C 39.476562 19.832031 39.4375 19.816406 39.402344 19.804688 C 39.363281 19.792969 39.328125 19.777344 39.296875 19.765625 C 39.261719 19.753906 39.230469 19.742188 39.199219 19.734375 C 39.140625 19.710938 39.085938 19.691406 39.039062 19.675781 C 38.992188 19.660156 38.949219 19.648438 38.917969 19.636719 C 38.851562 19.617188 38.816406 19.605469 38.816406 19.605469 C 38.816406 19.605469 38.851562 19.617188 38.914062 19.644531 C 38.949219 19.65625 38.988281 19.671875 39.035156 19.6875 C 39.082031 19.707031 39.132812 19.730469 39.191406 19.753906 C 39.222656 19.765625 39.253906 19.777344 39.285156 19.792969 C 39.320312 19.804688 39.351562 19.820312 39.386719 19.835938 C 39.421875 19.851562 39.460938 19.867188 39.5 19.882812 C 39.535156 19.902344 39.574219 19.917969 39.617188 19.9375 C 39.78125 20.011719 39.960938 20.101562 40.15625 20.199219 C 40.351562 20.300781 40.558594 20.417969 40.773438 20.542969 C 40.992188 20.671875 41.214844 20.8125 41.441406 20.96875 C 41.664062 21.121094 41.894531 21.289062 42.117188 21.464844 C 42.34375 21.644531 42.566406 21.832031 42.78125 22.027344 C 43 22.21875 43.207031 22.421875 43.40625 22.628906 C 43.605469 22.832031 43.792969 23.039062 43.96875 23.246094 C 44.144531 23.453125 44.3125 23.65625 44.460938 23.855469 C 44.609375 24.054688 44.746094 24.246094 44.867188 24.425781 C 44.988281 24.605469 45.09375 24.773438 45.183594 24.921875 C 45.273438 25.070312 45.347656 25.199219 45.40625 25.308594 C 42.960938 25.394531 40.964844 24.75 39.46875 23.394531 C 38.058594 22.117188 37.351562 20.425781 37.007812 19.230469 C 36.75 18.34375 36.652344 17.589844 36.613281 17.195312 C 40.339844 17.640625 42.972656 19.164062 44.445312 21.722656 Z M 44.445312 21.722656 " fill-opacity="1" fill-rule="nonzero"/><path fill="#56923b" d="M 53.132812 40.71875 C 53.121094 41.226562 53.0625 41.71875 52.976562 42.183594 C 52.886719 42.648438 52.769531 43.085938 52.628906 43.5 C 52.582031 43.648438 52.527344 43.792969 52.476562 43.933594 L 51.625 43.933594 C 51.683594 43.71875 51.738281 43.5 51.785156 43.277344 C 51.953125 42.488281 52.046875 41.625 51.996094 40.730469 C 51.941406 39.835938 51.734375 38.910156 51.347656 38.015625 C 51.296875 37.90625 51.246094 37.792969 51.195312 37.683594 C 51.179688 37.65625 51.167969 37.628906 51.152344 37.601562 L 51.113281 37.523438 C 51.085938 37.46875 51.058594 37.414062 51.03125 37.363281 C 51.007812 37.3125 50.972656 37.25 50.941406 37.191406 C 50.90625 37.132812 50.875 37.074219 50.839844 37.015625 L 50.792969 36.929688 C 50.792969 36.933594 50.792969 36.933594 50.792969 36.933594 L 50.785156 36.921875 L 50.773438 36.902344 L 50.746094 36.859375 C 50.714844 36.804688 50.679688 36.75 50.644531 36.691406 C 50.613281 36.636719 50.578125 36.582031 50.542969 36.527344 C 50.507812 36.472656 50.472656 36.414062 50.4375 36.359375 C 50.363281 36.25 50.296875 36.136719 50.21875 36.027344 C 50.144531 35.914062 50.070312 35.804688 49.996094 35.691406 C 49.917969 35.582031 49.839844 35.46875 49.765625 35.355469 C 49.453125 34.90625 49.128906 34.453125 48.8125 33.980469 C 48.730469 33.863281 48.652344 33.746094 48.570312 33.628906 C 48.492188 33.507812 48.414062 33.386719 48.335938 33.265625 C 48.257812 33.144531 48.183594 33.019531 48.105469 32.898438 C 48.066406 32.835938 48.03125 32.773438 47.992188 32.710938 L 47.882812 32.523438 C 47.804688 32.398438 47.738281 32.265625 47.664062 32.136719 C 47.632812 32.074219 47.59375 32.007812 47.5625 31.945312 L 47.460938 31.746094 L 47.363281 31.546875 C 47.328125 31.480469 47.300781 31.410156 47.269531 31.34375 L 47.175781 31.140625 L 47.132812 31.039062 C 47.117188 31.003906 47.105469 30.96875 47.089844 30.933594 C 47.035156 30.789062 46.976562 30.644531 46.921875 30.5 C 46.878906 30.367188 46.835938 30.234375 46.792969 30.105469 L 46.777344 30.054688 L 46.761719 30.011719 L 46.757812 29.984375 L 46.726562 29.875 L 46.695312 29.761719 C 46.683594 29.726562 46.675781 29.6875 46.667969 29.652344 L 46.640625 29.542969 C 46.632812 29.503906 46.625 29.46875 46.617188 29.429688 C 46.601562 29.355469 46.589844 29.28125 46.574219 29.207031 C 46.472656 28.609375 46.441406 28.003906 46.484375 27.421875 C 46.527344 26.835938 46.632812 26.269531 46.777344 25.738281 C 46.921875 25.199219 47.105469 24.695312 47.304688 24.210938 C 47.402344 23.972656 47.503906 23.738281 47.609375 23.507812 C 47.714844 23.277344 47.820312 23.054688 47.925781 22.835938 C 48.355469 21.964844 48.78125 21.167969 49.140625 20.421875 C 49.5 19.679688 49.796875 18.988281 50.007812 18.355469 C 50.214844 17.726562 50.339844 17.160156 50.402344 16.683594 C 50.46875 16.210938 50.476562 15.828125 50.472656 15.566406 C 50.472656 15.503906 50.472656 15.445312 50.472656 15.394531 C 50.46875 15.34375 50.464844 15.300781 50.464844 15.269531 C 50.460938 15.199219 50.460938 15.167969 50.460938 15.167969 C 50.460938 15.167969 50.46875 15.199219 50.488281 15.265625 C 50.496094 15.296875 50.507812 15.339844 50.519531 15.386719 C 50.535156 15.4375 50.546875 15.492188 50.558594 15.558594 C 50.566406 15.589844 50.574219 15.625 50.582031 15.660156 C 50.589844 15.695312 50.597656 15.734375 50.605469 15.773438 C 50.613281 15.816406 50.621094 15.855469 50.625 15.902344 C 50.632812 15.945312 50.640625 15.992188 50.644531 16.039062 C 50.660156 16.132812 50.671875 16.238281 50.683594 16.347656 C 50.6875 16.402344 50.691406 16.457031 50.695312 16.515625 C 50.699219 16.546875 50.699219 16.578125 50.703125 16.605469 C 50.703125 16.636719 50.703125 16.667969 50.703125 16.699219 C 50.707031 16.761719 50.710938 16.824219 50.710938 16.890625 L 50.710938 17.09375 C 50.707031 17.160156 50.707031 17.230469 50.703125 17.304688 C 50.703125 17.375 50.695312 17.449219 50.691406 17.523438 C 50.671875 17.824219 50.628906 18.148438 50.570312 18.492188 C 50.445312 19.179688 50.230469 19.941406 49.949219 20.742188 C 49.664062 21.542969 49.316406 22.390625 48.96875 23.273438 C 48.882812 23.492188 48.796875 23.71875 48.714844 23.941406 C 48.671875 24.054688 48.632812 24.167969 48.589844 24.285156 C 48.570312 24.339844 48.550781 24.398438 48.53125 24.457031 C 48.511719 24.511719 48.492188 24.570312 48.472656 24.628906 C 48.394531 24.859375 48.324219 25.09375 48.253906 25.328125 C 48.191406 25.5625 48.128906 25.800781 48.078125 26.039062 C 48.066406 26.101562 48.050781 26.160156 48.042969 26.222656 C 48.03125 26.28125 48.019531 26.339844 48.007812 26.402344 C 48 26.460938 47.988281 26.523438 47.980469 26.582031 C 47.96875 26.644531 47.960938 26.703125 47.953125 26.765625 C 47.921875 27.007812 47.902344 27.25 47.894531 27.496094 C 47.886719 27.738281 47.890625 27.984375 47.914062 28.226562 C 47.933594 28.472656 47.964844 28.714844 48.015625 28.953125 C 48.027344 29.015625 48.042969 29.074219 48.054688 29.132812 C 48.066406 29.195312 48.085938 29.253906 48.101562 29.3125 C 48.109375 29.34375 48.113281 29.375 48.125 29.402344 L 48.148438 29.492188 L 48.175781 29.582031 L 48.179688 29.589844 L 48.179688 29.597656 L 48.183594 29.601562 L 48.1875 29.609375 L 48.203125 29.660156 C 48.25 29.789062 48.292969 29.921875 48.339844 30.050781 C 48.386719 30.167969 48.433594 30.28125 48.480469 30.394531 C 48.492188 30.425781 48.5 30.453125 48.515625 30.480469 L 48.554688 30.570312 L 48.636719 30.75 C 48.691406 30.867188 48.753906 30.984375 48.8125 31.101562 L 48.902344 31.28125 L 48.996094 31.453125 C 49.0625 31.570312 49.121094 31.6875 49.195312 31.804688 C 49.261719 31.917969 49.328125 32.035156 49.398438 32.152344 C 49.472656 32.265625 49.542969 32.382812 49.613281 32.496094 C 49.6875 32.613281 49.761719 32.726562 49.835938 32.84375 C 49.910156 32.957031 49.988281 33.074219 50.0625 33.1875 C 50.371094 33.648438 50.683594 34.109375 50.992188 34.578125 C 51.066406 34.695312 51.144531 34.8125 51.21875 34.929688 C 51.296875 35.046875 51.371094 35.167969 51.445312 35.285156 C 51.519531 35.40625 51.589844 35.527344 51.664062 35.648438 C 51.699219 35.707031 51.734375 35.769531 51.769531 35.828125 C 51.804688 35.890625 51.839844 35.953125 51.875 36.011719 C 51.90625 36.074219 51.941406 36.136719 51.976562 36.199219 L 52.035156 36.300781 L 52.078125 36.390625 C 52.109375 36.453125 52.140625 36.511719 52.171875 36.570312 C 52.199219 36.632812 52.230469 36.6875 52.261719 36.757812 C 52.292969 36.824219 52.324219 36.890625 52.355469 36.957031 L 52.398438 37.058594 C 52.414062 37.09375 52.429688 37.125 52.441406 37.15625 C 52.492188 37.289062 52.546875 37.421875 52.597656 37.550781 C 52.640625 37.683594 52.6875 37.816406 52.734375 37.949219 C 52.773438 38.082031 52.808594 38.214844 52.847656 38.347656 C 52.882812 38.480469 52.914062 38.617188 52.945312 38.75 C 52.972656 38.882812 52.996094 39.015625 53.019531 39.148438 C 53.109375 39.679688 53.144531 40.207031 53.132812 40.71875 Z M 53.132812 40.71875 " fill-opacity="1" fill-rule="nonzero"/><path fill="#6b4526" d="M 42.910156 45.648438 C 43.207031 45.558594 43.738281 45.414062 44.039062 45.320312 C 45.71875 44.800781 46.914062 43.320312 48.421875 42.488281 C 50.089844 41.570312 52.207031 41.398438 54.027344 41.910156 C 55.609375 42.355469 56.964844 43.234375 58.492188 43.808594 C 60.121094 44.425781 62.039062 44.644531 63.742188 44.863281 C 63.742188 44.863281 61.339844 47.359375 49.621094 46.652344 C 47.632812 46.492188 45.515625 46.503906 43.597656 45.921875 C 43.429688 45.871094 43.082031 45.753906 42.910156 45.648438 Z M 42.910156 45.648438 " fill-opacity="1" fill-rule="nonzero"/><path fill="#95643f" d="M 43.089844 45.757812 C 43.382812 45.664062 43.738281 45.625 44.039062 45.53125 C 45.71875 45.015625 46.914062 43.640625 48.421875 42.808594 C 50.089844 41.890625 52.207031 41.71875 54.027344 42.230469 C 55.609375 42.675781 56.964844 43.554688 58.492188 44.128906 C 60.121094 44.746094 61.933594 44.785156 63.636719 45.007812 C 63.636719 45.007812 61.339844 47.535156 49.621094 46.832031 C 47.632812 46.671875 45.515625 46.539062 43.597656 45.957031 C 43.429688 45.90625 43.261719 45.859375 43.089844 45.757812 Z M 43.089844 45.757812 " fill-opacity="1" fill-rule="nonzero"/><path fill="#ffffff" d="M 105.066406 43.046875 C 104.464844 44.566406 103.574219 45.960938 102.394531 47.230469 C 101.21875 48.5 99.761719 49.511719 98.027344 50.273438 C 96.292969 51.03125 94.277344 51.410156 91.984375 51.410156 C 91.550781 51.410156 91.117188 51.394531 90.683594 51.363281 C 90.25 51.332031 89.800781 51.285156 89.335938 51.222656 L 89.195312 49.273438 C 91.300781 49.273438 93.054688 48.980469 94.449219 48.390625 C 95.84375 47.800781 96.949219 47.019531 97.769531 46.042969 C 98.589844 45.070312 99.179688 44 99.539062 42.839844 C 99.894531 41.675781 100.070312 40.523438 100.070312 39.378906 C 100.070312 38.261719 99.839844 37.226562 99.375 36.265625 C 98.910156 35.304688 98.203125 34.539062 97.261719 33.964844 C 96.3125 33.394531 95.113281 33.105469 93.65625 33.105469 C 93.007812 33.105469 92.300781 33.191406 91.542969 33.363281 C 90.867188 33.515625 90.164062 33.730469 89.425781 34.019531 C 89.425781 34.054688 89.425781 34.089844 89.425781 34.128906 C 89.425781 35.398438 89.296875 37.023438 89.03125 39.007812 C 88.769531 40.988281 88.457031 43.210938 88.101562 45.671875 C 87.746094 48.136719 87.4375 50.753906 87.171875 53.523438 C 86.910156 56.296875 86.777344 59.121094 86.777344 62 C 86.777344 62.714844 86.792969 63.449219 86.824219 64.207031 C 86.855469 64.96875 86.933594 65.75 87.058594 66.554688 C 86.683594 66.585938 86.335938 66.609375 86.011719 66.625 C 85.6875 66.640625 85.382812 66.648438 85.105469 66.648438 C 83.339844 66.648438 82.066406 66.335938 81.292969 65.71875 C 80.519531 65.097656 80.132812 64.078125 80.132812 62.652344 C 80.132812 61.539062 80.238281 60.113281 80.457031 58.378906 C 80.671875 56.644531 80.9375 54.722656 81.246094 52.617188 C 81.554688 50.511719 81.859375 48.3125 82.152344 46.019531 C 82.449219 43.730469 82.703125 41.4375 82.921875 39.144531 C 83.136719 36.855469 83.246094 34.671875 83.246094 32.59375 C 83.246094 31.417969 83.191406 30.390625 83.082031 29.507812 C 82.972656 28.625 82.8125 27.949219 82.59375 27.484375 C 84.050781 27.578125 85.28125 27.902344 86.289062 28.460938 C 87.296875 29.019531 88.070312 29.769531 88.613281 30.714844 C 88.699219 30.863281 88.777344 31.015625 88.851562 31.175781 C 90.042969 30.507812 91.265625 30.027344 92.519531 29.738281 C 93.929688 29.414062 95.222656 29.25 96.398438 29.25 C 98.570312 29.25 100.359375 29.683594 101.769531 30.550781 C 103.179688 31.417969 104.230469 32.550781 104.929688 33.941406 C 105.625 35.335938 105.976562 36.855469 105.976562 38.496094 C 105.976562 40.011719 105.671875 41.53125 105.066406 43.046875 Z M 104.972656 33.921875 C 104.273438 32.527344 103.207031 31.378906 101.792969 30.511719 C 100.382812 29.644531 98.566406 29.203125 96.398438 29.203125 C 95.222656 29.203125 93.914062 29.367188 92.507812 29.691406 C 91.273438 29.976562 90.050781 30.453125 88.871094 31.109375 C 88.804688 30.964844 88.734375 30.824219 88.65625 30.691406 C 88.113281 29.742188 87.324219 28.976562 86.3125 28.417969 C 85.304688 27.859375 84.054688 27.53125 82.597656 27.4375 L 82.515625 27.433594 L 82.550781 27.507812 C 82.765625 27.964844 82.925781 28.640625 83.035156 29.511719 C 83.144531 30.390625 83.195312 31.429688 83.195312 32.59375 C 83.195312 34.65625 83.085938 36.855469 82.871094 39.140625 C 82.65625 41.421875 82.398438 43.734375 82.105469 46.015625 C 81.8125 48.292969 81.507812 50.511719 81.199219 52.609375 C 80.890625 54.71875 80.621094 56.65625 80.410156 58.371094 C 80.191406 60.097656 80.082031 61.539062 80.082031 62.652344 C 80.082031 64.085938 80.480469 65.128906 81.261719 65.753906 C 82.042969 66.378906 83.335938 66.695312 85.105469 66.695312 C 85.378906 66.695312 85.683594 66.6875 86.011719 66.671875 C 86.335938 66.65625 86.691406 66.632812 87.0625 66.601562 L 87.113281 66.597656 L 87.105469 66.546875 C 86.980469 65.746094 86.902344 64.957031 86.871094 64.207031 C 86.84375 63.457031 86.824219 62.714844 86.824219 62 C 86.824219 59.132812 86.960938 56.28125 87.222656 53.527344 C 87.484375 50.773438 87.796875 48.132812 88.152344 45.679688 C 88.507812 43.207031 88.820312 40.964844 89.078125 39.011719 C 89.34375 37.035156 89.476562 35.390625 89.476562 34.128906 C 89.476562 34.101562 89.476562 34.078125 89.476562 34.050781 C 90.195312 33.773438 90.894531 33.558594 91.554688 33.410156 C 92.308594 33.242188 93.015625 33.15625 93.65625 33.15625 C 95.097656 33.15625 96.300781 33.441406 97.234375 34.007812 C 98.167969 34.574219 98.871094 35.339844 99.332031 36.285156 C 99.789062 37.234375 100.023438 38.277344 100.023438 39.378906 C 100.023438 40.511719 99.84375 41.671875 99.492188 42.824219 C 99.136719 43.972656 98.546875 45.046875 97.734375 46.011719 C 96.921875 46.980469 95.808594 47.765625 94.429688 48.347656 C 93.046875 48.929688 91.285156 49.226562 89.195312 49.226562 L 89.144531 49.226562 L 89.289062 51.265625 L 89.328125 51.273438 C 89.792969 51.335938 90.246094 51.382812 90.679688 51.410156 C 91.109375 51.441406 91.546875 51.457031 91.984375 51.457031 C 94.273438 51.457031 96.3125 51.074219 98.046875 50.316406 C 99.777344 49.558594 101.253906 48.53125 102.429688 47.261719 C 103.609375 45.992188 104.511719 44.582031 105.113281 43.066406 C 105.71875 41.550781 106.023438 40.011719 106.023438 38.496094 C 106.023438 36.855469 105.667969 35.316406 104.972656 33.921875 Z M 104.972656 33.921875 " fill-opacity="1" fill-rule="nonzero"/><path fill="#ffffff" d="M 105.976562 38.496094 C 105.976562 40.011719 105.671875 41.53125 105.066406 43.046875 C 104.464844 44.566406 103.574219 45.960938 102.394531 47.230469 C 101.21875 48.5 99.761719 49.511719 98.027344 50.273438 C 96.292969 51.03125 94.277344 51.410156 91.984375 51.410156 C 91.550781 51.410156 91.117188 51.394531 90.683594 51.363281 C 90.25 51.332031 89.800781 51.285156 89.335938 51.222656 L 89.195312 49.273438 C 91.300781 49.273438 93.054688 48.980469 94.449219 48.390625 C 95.84375 47.804688 96.949219 47.019531 97.769531 46.042969 C 98.589844 45.070312 99.179688 44 99.539062 42.839844 C 99.894531 41.675781 100.070312 40.523438 100.070312 39.378906 C 100.070312 38.261719 99.839844 37.226562 99.375 36.265625 C 98.910156 35.304688 98.203125 34.539062 97.257812 33.964844 C 96.3125 33.394531 95.113281 33.105469 93.65625 33.105469 C 93.007812 33.105469 92.300781 33.191406 91.542969 33.363281 C 90.867188 33.515625 90.164062 33.730469 89.425781 34.019531 C 89.425781 34.054688 89.425781 34.089844 89.425781 34.128906 C 89.425781 35.398438 89.296875 37.023438 89.03125 39.007812 C 88.769531 40.988281 88.457031 43.210938 88.101562 45.671875 C 87.746094 48.136719 87.4375 50.753906 87.171875 53.523438 C 86.910156 56.296875 86.777344 59.121094 86.777344 62 C 86.777344 62.714844 86.792969 63.449219 86.824219 64.207031 C 86.855469 64.96875 86.933594 65.75 87.058594 66.554688 C 86.683594 66.585938 86.335938 66.609375 86.011719 66.625 C 85.6875 66.640625 85.382812 66.648438 85.105469 66.648438 C 83.339844 66.648438 82.066406 66.335938 81.292969 65.71875 C 80.519531 65.097656 80.132812 64.078125 80.132812 62.652344 C 80.132812 61.539062 80.238281 60.113281 80.457031 58.378906 C 80.671875 56.644531 80.9375 54.722656 81.246094 52.617188 C 81.554688 50.511719 81.859375 48.3125 82.152344 46.019531 C 82.449219 43.730469 82.703125 41.4375 82.921875 39.144531 C 83.136719 36.855469 83.246094 34.671875 83.246094 32.59375 C 83.246094 31.417969 83.191406 30.390625 83.082031 29.507812 C 82.972656 28.625 82.8125 27.949219 82.59375 27.484375 C 84.050781 27.578125 85.28125 27.902344 86.289062 28.460938 C 87.296875 29.019531 88.070312 29.769531 88.613281 30.714844 C 88.699219 30.863281 88.777344 31.015625 88.851562 31.175781 C 90.042969 30.507812 91.265625 30.027344 92.519531 29.738281 C 93.929688 29.414062 95.222656 29.25 96.398438 29.25 C 98.570312 29.25 100.359375 29.683594 101.769531 30.550781 C 103.179688 31.417969 104.230469 32.550781 104.929688 33.941406 C 105.625 35.335938 105.976562 36.855469 105.976562 38.496094 Z M 105.976562 38.496094 " fill-opacity="1" fill-rule="nonzero"/><path fill="#ffffff" d="M 123.3125 57.867188 C 122.691406 59.507812 121.824219 60.972656 120.710938 62.257812 C 119.59375 63.542969 118.347656 64.558594 116.96875 65.300781 C 115.589844 66.042969 114.1875 66.414062 112.761719 66.414062 C 110.714844 66.414062 109.097656 65.601562 107.902344 63.976562 C 106.710938 62.351562 106.113281 60.175781 106.113281 57.449219 C 106.113281 55.125 106.46875 52.921875 107.183594 50.828125 C 107.894531 48.738281 108.878906 46.878906 110.132812 45.253906 C 111.390625 43.628906 112.824219 42.34375 114.433594 41.398438 C 116.042969 40.453125 117.734375 39.980469 119.5 39.980469 C 120.273438 39.980469 120.988281 40.058594 121.636719 40.214844 C 122.289062 40.371094 122.832031 40.601562 123.265625 40.910156 C 121.871094 41.40625 120.554688 42.195312 119.316406 43.28125 C 118.074219 44.363281 116.984375 45.648438 116.039062 47.136719 C 115.09375 48.621094 114.347656 50.210938 113.804688 51.898438 C 113.265625 53.585938 112.992188 55.28125 112.992188 56.984375 C 112.992188 58.5625 113.273438 59.796875 113.828125 60.679688 C 114.386719 61.5625 115.160156 62 116.152344 62 C 117.238281 62 118.292969 61.515625 119.316406 60.539062 C 120.335938 59.5625 121.242188 58.238281 122.035156 56.566406 C 122.824219 54.894531 123.453125 52.996094 123.917969 50.875 C 124.382812 48.753906 124.613281 46.546875 124.613281 44.257812 C 124.613281 43.296875 124.589844 42.398438 124.542969 41.5625 C 124.496094 40.726562 124.425781 40.027344 124.335938 39.472656 C 124.613281 39.410156 124.875 39.378906 125.125 39.378906 L 126.378906 39.378906 C 127.992188 39.378906 129.175781 39.6875 129.9375 40.308594 C 130.695312 40.925781 131.074219 41.886719 131.074219 43.1875 C 131.074219 43.992188 130.964844 45.03125 130.75 46.300781 C 130.53125 47.570312 130.277344 48.996094 129.980469 50.574219 C 129.6875 52.152344 129.425781 53.808594 129.191406 55.542969 C 128.960938 57.28125 128.84375 59 128.84375 60.699219 C 128.84375 62.03125 128.953125 63.1875 129.167969 64.160156 C 129.386719 65.136719 129.757812 66.214844 130.285156 67.390625 C 127.835938 66.925781 126.101562 66.027344 125.078125 64.695312 C 124.054688 63.363281 123.542969 61.335938 123.542969 58.609375 L 123.542969 58.214844 C 123.542969 58.140625 123.558594 58.054688 123.589844 57.960938 Z M 123.3125 57.867188 " fill-opacity="1" fill-rule="nonzero"/><path fill="#ffffff" d="M 123.285156 57.808594 L 123.652344 57.929688 L 123.636719 57.976562 C 123.605469 58.0625 123.59375 58.144531 123.59375 58.214844 L 123.59375 58.609375 C 123.59375 61.3125 124.105469 63.351562 125.117188 64.667969 C 126.113281 65.964844 127.824219 66.859375 130.203125 67.324219 C 129.695312 66.183594 129.332031 65.121094 129.121094 64.171875 C 128.90625 63.199219 128.796875 62.03125 128.796875 60.699219 C 128.796875 59.003906 128.914062 57.265625 129.144531 55.539062 C 129.375 53.800781 129.644531 52.128906 129.933594 50.566406 C 130.226562 48.988281 130.488281 47.550781 130.703125 46.292969 C 130.917969 45.027344 131.027344 43.984375 131.027344 43.1875 C 131.027344 41.910156 130.648438 40.953125 129.90625 40.34375 C 129.15625 39.734375 127.972656 39.425781 126.378906 39.425781 L 125.125 39.425781 C 124.894531 39.425781 124.648438 39.453125 124.390625 39.507812 C 124.480469 40.058594 124.546875 40.746094 124.59375 41.558594 C 124.636719 42.390625 124.660156 43.300781 124.660156 44.257812 C 124.660156 46.542969 124.425781 48.773438 123.964844 50.886719 C 123.5 53 122.867188 54.917969 122.078125 56.585938 C 121.289062 58.257812 120.371094 59.597656 119.347656 60.574219 C 118.320312 61.554688 117.246094 62.050781 116.152344 62.050781 C 115.148438 62.050781 114.355469 61.597656 113.789062 60.703125 C 113.230469 59.816406 112.945312 58.566406 112.945312 56.984375 C 112.945312 55.285156 113.21875 53.566406 113.761719 51.882812 C 114.300781 50.199219 115.054688 48.59375 115.996094 47.109375 C 116.9375 45.628906 118.042969 44.328125 119.28125 43.246094 C 120.496094 42.183594 121.796875 41.394531 123.160156 40.898438 C 122.746094 40.621094 122.230469 40.40625 121.628906 40.261719 C 120.984375 40.109375 120.265625 40.03125 119.5 40.03125 C 117.75 40.03125 116.054688 40.503906 114.457031 41.441406 C 112.859375 42.378906 111.417969 43.671875 110.171875 45.285156 C 108.925781 46.898438 107.9375 48.769531 107.230469 50.84375 C 106.519531 52.917969 106.160156 55.140625 106.160156 57.449219 C 106.160156 60.152344 106.761719 62.339844 107.941406 63.949219 C 109.121094 65.554688 110.742188 66.367188 112.761719 66.367188 C 114.171875 66.367188 115.578125 65.992188 116.945312 65.257812 C 118.3125 64.519531 119.566406 63.5 120.671875 62.226562 C 121.777344 60.953125 122.652344 59.480469 123.265625 57.851562 Z M 130.367188 67.457031 L 130.273438 67.4375 C 127.828125 66.972656 126.066406 66.0625 125.039062 64.726562 C 124.015625 63.390625 123.496094 61.335938 123.496094 58.609375 L 123.496094 58.214844 C 123.496094 58.144531 123.507812 58.070312 123.53125 57.992188 L 123.339844 57.925781 C 122.722656 59.550781 121.847656 61.019531 120.746094 62.289062 C 119.632812 63.570312 118.367188 64.597656 116.988281 65.34375 C 115.609375 66.085938 114.1875 66.464844 112.761719 66.464844 C 110.707031 66.464844 109.0625 65.636719 107.863281 64.003906 C 106.671875 62.378906 106.066406 60.171875 106.066406 57.449219 C 106.066406 55.128906 106.425781 52.898438 107.136719 50.8125 C 107.847656 48.730469 108.84375 46.847656 110.097656 45.226562 C 111.347656 43.601562 112.800781 42.300781 114.410156 41.359375 C 116.019531 40.414062 117.734375 39.933594 119.5 39.933594 C 120.273438 39.933594 120.996094 40.011719 121.648438 40.167969 C 122.304688 40.324219 122.855469 40.558594 123.292969 40.871094 L 123.367188 40.925781 L 123.28125 40.957031 C 121.898438 41.449219 120.574219 42.242188 119.347656 43.316406 C 118.113281 44.394531 117.015625 45.6875 116.078125 47.160156 C 115.140625 48.636719 114.390625 50.234375 113.851562 51.914062 C 113.3125 53.585938 113.042969 55.292969 113.042969 56.984375 C 113.042969 58.546875 113.320312 59.78125 113.871094 60.652344 C 114.417969 61.515625 115.183594 61.953125 116.152344 61.953125 C 117.21875 61.953125 118.273438 61.464844 119.28125 60.503906 C 120.292969 59.535156 121.207031 58.207031 121.988281 56.546875 C 122.773438 54.882812 123.40625 52.972656 123.871094 50.867188 C 124.332031 48.757812 124.566406 46.535156 124.566406 44.257812 C 124.566406 43.300781 124.542969 42.394531 124.496094 41.5625 C 124.449219 40.734375 124.378906 40.03125 124.285156 39.480469 L 124.28125 39.433594 L 124.324219 39.425781 C 124.605469 39.363281 124.875 39.328125 125.125 39.328125 L 126.378906 39.328125 C 127.996094 39.328125 129.199219 39.644531 129.964844 40.269531 C 130.734375 40.898438 131.121094 41.878906 131.121094 43.1875 C 131.121094 43.988281 131.011719 45.039062 130.796875 46.308594 C 130.582031 47.566406 130.324219 49.003906 130.03125 50.582031 C 129.738281 52.144531 129.472656 53.816406 129.238281 55.550781 C 129.007812 57.277344 128.890625 59.007812 128.890625 60.699219 C 128.890625 62.023438 129 63.183594 129.214844 64.152344 C 129.429688 65.117188 129.804688 66.203125 130.328125 67.371094 Z M 130.367188 67.457031 " fill-opacity="1" fill-rule="nonzero"/><path fill="#ffffff" d="M 136.046875 60.421875 C 136.046875 59.402344 136.15625 57.945312 136.371094 56.054688 C 136.589844 54.167969 136.851562 52.03125 137.164062 49.644531 C 137.472656 47.261719 137.773438 44.78125 138.070312 42.210938 C 138.363281 39.640625 138.621094 37.148438 138.835938 34.734375 C 139.054688 32.316406 139.160156 30.164062 139.160156 28.277344 C 139.160156 27.007812 139.117188 25.898438 139.023438 24.953125 C 138.929688 24.007812 138.789062 23.304688 138.605469 22.839844 C 140.214844 23.273438 141.453125 23.847656 142.324219 24.558594 C 143.191406 25.273438 143.792969 26.15625 144.136719 27.207031 C 144.476562 28.261719 144.648438 29.515625 144.648438 30.96875 C 144.648438 32.394531 144.507812 34.253906 144.226562 36.542969 C 143.949219 38.835938 143.640625 41.40625 143.296875 44.257812 C 142.957031 47.105469 142.648438 50.078125 142.371094 53.175781 C 142.089844 56.273438 141.949219 59.339844 141.949219 62.375 C 141.949219 63.085938 141.972656 63.789062 142.019531 64.488281 C 142.066406 65.183594 142.105469 65.871094 142.136719 66.554688 C 140.679688 66.492188 139.535156 66.304688 138.695312 65.996094 C 137.859375 65.6875 137.257812 65.269531 136.882812 64.742188 C 136.511719 64.214844 136.28125 63.589844 136.1875 62.859375 C 136.09375 62.132812 136.046875 61.320312 136.046875 60.421875 Z M 136.046875 60.421875 " fill-opacity="1" fill-rule="nonzero"/><path fill="#ffffff" d="M 138.683594 22.910156 C 138.851562 23.378906 138.984375 24.0625 139.070312 24.949219 C 139.164062 25.890625 139.210938 27.011719 139.210938 28.277344 C 139.210938 30.152344 139.101562 32.324219 138.882812 34.738281 C 138.667969 37.144531 138.410156 39.660156 138.117188 42.21875 C 137.824219 44.773438 137.519531 47.273438 137.210938 49.652344 C 136.898438 52.042969 136.632812 54.199219 136.421875 56.0625 C 136.207031 57.9375 136.097656 59.40625 136.097656 60.421875 C 136.097656 61.316406 136.144531 62.132812 136.234375 62.855469 C 136.328125 63.570312 136.558594 64.199219 136.921875 64.714844 C 137.289062 65.230469 137.890625 65.648438 138.714844 65.953125 C 139.53125 66.253906 140.667969 66.441406 142.085938 66.503906 C 142.054688 65.832031 142.015625 65.15625 141.972656 64.492188 C 141.925781 63.796875 141.902344 63.082031 141.902344 62.375 C 141.902344 59.351562 142.042969 56.253906 142.320312 53.171875 C 142.601562 50.074219 142.914062 47.070312 143.25 44.25 C 143.574219 41.53125 143.890625 38.9375 144.179688 36.539062 C 144.457031 34.257812 144.597656 32.386719 144.597656 30.96875 C 144.597656 29.527344 144.425781 28.265625 144.089844 27.222656 C 143.753906 26.183594 143.148438 25.300781 142.292969 24.597656 C 141.449219 23.90625 140.238281 23.339844 138.683594 22.910156 Z M 142.1875 66.605469 L 142.132812 66.601562 C 140.679688 66.539062 139.519531 66.351562 138.679688 66.042969 C 137.839844 65.730469 137.222656 65.304688 136.84375 64.769531 C 136.46875 64.238281 136.234375 63.601562 136.140625 62.867188 C 136.046875 62.140625 136 61.320312 136 60.421875 C 136 59.402344 136.109375 57.929688 136.324219 56.050781 C 136.539062 54.1875 136.804688 52.03125 137.117188 49.636719 C 137.421875 47.261719 137.730469 44.761719 138.023438 42.207031 C 138.3125 39.648438 138.570312 37.132812 138.789062 34.726562 C 139.003906 32.320312 139.113281 30.148438 139.113281 28.277344 C 139.113281 27.015625 139.066406 25.898438 138.972656 24.957031 C 138.882812 24.023438 138.742188 23.316406 138.558594 22.859375 L 138.523438 22.769531 L 138.617188 22.792969 C 140.226562 23.226562 141.484375 23.808594 142.351562 24.523438 C 143.222656 25.238281 143.839844 26.136719 144.179688 27.191406 C 144.523438 28.246094 144.695312 29.515625 144.695312 30.96875 C 144.695312 32.390625 144.554688 34.265625 144.277344 36.550781 C 143.984375 38.949219 143.671875 41.542969 143.347656 44.261719 C 143.007812 47.082031 142.695312 50.082031 142.417969 53.179688 C 142.140625 56.261719 142 59.355469 142 62.375 C 142 63.082031 142.023438 63.792969 142.070312 64.484375 C 142.113281 65.167969 142.152344 65.863281 142.183594 66.550781 Z M 142.1875 66.605469 " fill-opacity="1" fill-rule="nonzero"/><path fill="#ffffff" d="M 164.867188 57.867188 C 164.246094 59.507812 163.378906 60.972656 162.261719 62.257812 C 161.148438 63.542969 159.898438 64.558594 158.519531 65.300781 C 157.140625 66.042969 155.738281 66.414062 154.316406 66.414062 C 152.269531 66.414062 150.648438 65.601562 149.457031 63.976562 C 148.265625 62.351562 147.667969 60.175781 147.667969 57.449219 C 147.667969 55.125 148.023438 52.921875 148.738281 50.828125 C 149.449219 48.738281 150.433594 46.878906 151.6875 45.253906 C 152.945312 43.628906 154.375 42.34375 155.988281 41.398438 C 157.597656 40.453125 159.289062 39.980469 161.054688 39.980469 C 161.828125 39.980469 162.542969 40.058594 163.191406 40.214844 C 163.84375 40.371094 164.386719 40.601562 164.820312 40.910156 C 163.425781 41.40625 162.109375 42.195312 160.867188 43.28125 C 159.628906 44.363281 158.535156 45.648438 157.589844 47.136719 C 156.644531 48.621094 155.902344 50.210938 155.359375 51.898438 C 154.816406 53.585938 154.546875 55.28125 154.546875 56.984375 C 154.546875 58.5625 154.824219 59.796875 155.382812 60.679688 C 155.941406 61.5625 156.714844 62 157.707031 62 C 158.792969 62 159.847656 61.515625 160.867188 60.539062 C 161.890625 59.5625 162.796875 58.238281 163.585938 56.566406 C 164.378906 54.894531 165.003906 52.996094 165.46875 50.875 C 165.933594 48.753906 166.167969 46.546875 166.167969 44.257812 C 166.167969 43.296875 166.144531 42.398438 166.097656 41.5625 C 166.050781 40.726562 165.980469 40.027344 165.886719 39.472656 C 166.167969 39.410156 166.429688 39.378906 166.679688 39.378906 L 167.933594 39.378906 C 169.542969 39.378906 170.730469 39.6875 171.488281 40.308594 C 172.25 40.925781 172.628906 41.886719 172.628906 43.1875 C 172.628906 43.992188 172.519531 45.03125 172.304688 46.300781 C 172.085938 47.570312 171.832031 48.996094 171.535156 50.574219 C 171.242188 52.152344 170.976562 53.808594 170.746094 55.542969 C 170.511719 57.28125 170.398438 59 170.398438 60.699219 C 170.398438 62.03125 170.503906 63.1875 170.722656 64.160156 C 170.9375 65.136719 171.3125 66.214844 171.839844 67.390625 C 169.390625 66.925781 167.65625 66.027344 166.632812 64.695312 C 165.609375 63.363281 165.097656 61.335938 165.097656 58.609375 L 165.097656 58.214844 C 165.097656 58.140625 165.113281 58.054688 165.144531 57.960938 Z M 164.867188 57.867188 " fill-opacity="1" fill-rule="nonzero"/><path fill="#ffffff" d="M 164.835938 57.808594 L 165.207031 57.929688 L 165.191406 57.976562 C 165.160156 58.0625 165.148438 58.144531 165.148438 58.214844 L 165.148438 58.609375 C 165.148438 61.3125 165.660156 63.351562 166.671875 64.667969 C 167.667969 65.964844 169.378906 66.859375 171.757812 67.324219 C 171.25 66.183594 170.886719 65.121094 170.675781 64.171875 C 170.457031 63.199219 170.347656 62.03125 170.347656 60.699219 C 170.347656 59.003906 170.464844 57.265625 170.699219 55.539062 C 170.929688 53.800781 171.195312 52.128906 171.488281 50.566406 C 171.78125 48.988281 172.039062 47.550781 172.253906 46.292969 C 172.472656 45.027344 172.582031 43.984375 172.582031 43.1875 C 172.582031 41.910156 172.203125 40.953125 171.460938 40.34375 C 170.710938 39.734375 169.527344 39.425781 167.933594 39.425781 L 166.679688 39.425781 C 166.449219 39.425781 166.203125 39.453125 165.945312 39.507812 C 166.03125 40.058594 166.101562 40.746094 166.144531 41.558594 C 166.191406 42.390625 166.214844 43.300781 166.214844 44.257812 C 166.214844 46.542969 165.980469 48.773438 165.515625 50.886719 C 165.054688 53 164.417969 54.917969 163.632812 56.585938 C 162.84375 58.257812 161.925781 59.597656 160.902344 60.574219 C 159.875 61.554688 158.800781 62.050781 157.707031 62.050781 C 156.703125 62.050781 155.90625 61.597656 155.34375 60.703125 C 154.78125 59.816406 154.5 58.566406 154.5 56.984375 C 154.5 55.285156 154.773438 53.566406 155.316406 51.882812 C 155.855469 50.199219 156.609375 48.59375 157.550781 47.109375 C 158.492188 45.628906 159.597656 44.328125 160.835938 43.246094 C 162.046875 42.183594 163.351562 41.394531 164.714844 40.898438 C 164.300781 40.621094 163.785156 40.40625 163.179688 40.261719 C 162.535156 40.109375 161.820312 40.03125 161.054688 40.03125 C 159.304688 40.03125 157.609375 40.503906 156.011719 41.441406 C 154.414062 42.378906 152.972656 43.671875 151.726562 45.285156 C 150.480469 46.898438 149.488281 48.769531 148.78125 50.84375 C 148.074219 52.917969 147.714844 55.140625 147.714844 57.449219 C 147.714844 60.152344 148.316406 62.339844 149.496094 63.949219 C 150.671875 65.554688 152.292969 66.367188 154.316406 66.367188 C 155.726562 66.367188 157.132812 65.992188 158.5 65.257812 C 159.867188 64.519531 161.121094 63.5 162.226562 62.226562 C 163.332031 60.953125 164.207031 59.480469 164.820312 57.851562 Z M 171.917969 67.457031 L 171.828125 67.4375 C 169.382812 66.972656 167.621094 66.0625 166.59375 64.726562 C 165.570312 63.390625 165.050781 61.335938 165.050781 58.609375 L 165.050781 58.214844 C 165.050781 58.144531 165.0625 58.070312 165.085938 57.992188 L 164.894531 57.925781 C 164.277344 59.550781 163.402344 61.019531 162.300781 62.289062 C 161.1875 63.570312 159.921875 64.597656 158.542969 65.34375 C 157.164062 66.085938 155.742188 66.464844 154.316406 66.464844 C 152.261719 66.464844 150.613281 65.636719 149.417969 64.003906 C 148.226562 62.378906 147.621094 60.171875 147.621094 57.449219 C 147.621094 55.128906 147.980469 52.898438 148.691406 50.8125 C 149.402344 48.730469 150.398438 46.847656 151.648438 45.226562 C 152.902344 43.601562 154.355469 42.300781 155.964844 41.359375 C 157.574219 40.414062 159.289062 39.933594 161.054688 39.933594 C 161.828125 39.933594 162.550781 40.011719 163.203125 40.167969 C 163.855469 40.324219 164.410156 40.558594 164.847656 40.871094 L 164.921875 40.925781 L 164.835938 40.957031 C 163.453125 41.449219 162.128906 42.242188 160.898438 43.316406 C 159.667969 44.394531 158.570312 45.6875 157.632812 47.160156 C 156.695312 48.636719 155.945312 50.234375 155.40625 51.914062 C 154.867188 53.585938 154.59375 55.292969 154.59375 56.984375 C 154.59375 58.546875 154.875 59.78125 155.425781 60.652344 C 155.96875 61.515625 156.738281 61.953125 157.707031 61.953125 C 158.773438 61.953125 159.828125 61.464844 160.835938 60.503906 C 161.847656 59.535156 162.761719 58.207031 163.542969 56.546875 C 164.328125 54.882812 164.960938 52.972656 165.421875 50.867188 C 165.886719 48.757812 166.121094 46.535156 166.121094 44.257812 C 166.121094 43.300781 166.097656 42.394531 166.050781 41.5625 C 166.003906 40.734375 165.933594 40.03125 165.839844 39.480469 L 165.832031 39.433594 L 165.878906 39.425781 C 166.160156 39.363281 166.429688 39.328125 166.679688 39.328125 L 167.933594 39.328125 C 169.546875 39.328125 170.753906 39.644531 171.519531 40.269531 C 172.289062 40.898438 172.675781 41.878906 172.675781 43.1875 C 172.675781 43.988281 172.566406 45.039062 172.351562 46.308594 C 172.136719 47.566406 171.878906 49.003906 171.582031 50.582031 C 171.292969 52.144531 171.027344 53.816406 170.792969 55.550781 C 170.5625 57.277344 170.445312 59.007812 170.445312 60.699219 C 170.445312 62.023438 170.554688 63.183594 170.769531 64.152344 C 170.984375 65.117188 171.359375 66.203125 171.882812 67.371094 L 171.921875 67.457031 Z M 171.917969 67.457031 " fill-opacity="1" fill-rule="nonzero"/><path fill="#ffffff" d="M 184.945312 49.96875 C 185.71875 47.832031 186.671875 45.945312 187.804688 44.300781 C 188.933594 42.660156 190.160156 41.375 191.476562 40.445312 C 192.792969 39.519531 194.085938 39.054688 195.359375 39.054688 C 197.1875 39.054688 198.488281 39.648438 199.261719 40.839844 C 200.035156 42.035156 200.425781 43.636719 200.425781 45.648438 C 200.425781 47.382812 200.277344 49.125 199.984375 50.875 C 199.6875 52.625 199.386719 54.375 199.074219 56.125 C 198.765625 57.875 198.609375 59.648438 198.609375 61.445312 C 198.609375 62.902344 198.828125 63.976562 199.261719 64.671875 C 199.695312 65.371094 200.363281 65.980469 201.261719 66.507812 C 200.949219 66.539062 200.65625 66.554688 200.378906 66.554688 L 199.539062 66.554688 C 197 66.554688 195.164062 66.167969 194.03125 65.394531 C 192.902344 64.621094 192.335938 63.195312 192.335938 61.121094 C 192.335938 60.191406 192.429688 59.152344 192.613281 58.007812 C 192.800781 56.863281 193.015625 55.660156 193.265625 54.40625 C 193.511719 53.152344 193.730469 51.890625 193.917969 50.621094 C 194.101562 49.351562 194.195312 48.128906 194.195312 46.949219 C 194.195312 44.90625 193.574219 43.882812 192.335938 43.882812 C 191.65625 43.882812 190.855469 44.289062 189.941406 45.09375 C 189.027344 45.898438 188.152344 47.058594 187.316406 48.578125 C 186.480469 50.09375 185.78125 51.929688 185.222656 54.082031 C 184.667969 56.234375 184.386719 58.640625 184.386719 61.304688 C 184.386719 62.019531 184.402344 62.753906 184.433594 63.511719 C 184.464844 64.269531 184.542969 65.050781 184.667969 65.859375 C 184.296875 65.886719 183.945312 65.910156 183.621094 65.925781 C 183.296875 65.941406 182.992188 65.949219 182.714844 65.949219 C 180.949219 65.949219 179.675781 65.640625 178.902344 65.019531 C 178.128906 64.402344 177.742188 63.378906 177.742188 61.957031 C 177.742188 61.273438 177.839844 60.304688 178.042969 59.050781 C 178.246094 57.796875 178.46875 56.378906 178.71875 54.800781 C 178.964844 53.222656 179.1875 51.589844 179.390625 49.898438 C 179.59375 48.210938 179.691406 46.59375 179.691406 45.046875 C 179.691406 43.839844 179.632812 42.644531 179.507812 41.46875 C 179.382812 40.292969 179.183594 39.160156 178.902344 38.078125 C 181.320312 38.851562 182.9375 39.921875 183.761719 41.28125 C 184.582031 42.644531 184.992188 44.226562 184.992188 46.019531 C 184.992188 46.609375 184.960938 47.230469 184.898438 47.878906 C 184.835938 48.53125 184.761719 49.210938 184.667969 49.921875 Z M 184.945312 49.96875 " fill-opacity="1" fill-rule="nonzero"/><path fill="#ffffff" d="M 192.335938 43.835938 C 193.601562 43.835938 194.242188 44.882812 194.242188 46.949219 C 194.242188 48.125 194.148438 49.359375 193.964844 50.628906 C 193.78125 51.886719 193.5625 53.160156 193.3125 54.414062 C 193.070312 55.648438 192.851562 56.859375 192.664062 58.015625 C 192.476562 59.152344 192.382812 60.195312 192.382812 61.121094 C 192.382812 63.167969 192.949219 64.59375 194.058594 65.351562 C 195.179688 66.117188 197.023438 66.507812 199.539062 66.507812 L 200.378906 66.507812 C 200.605469 66.507812 200.851562 66.496094 201.109375 66.472656 C 200.269531 65.960938 199.636719 65.363281 199.222656 64.699219 C 198.785156 63.996094 198.5625 62.902344 198.5625 61.445312 C 198.5625 59.652344 198.71875 57.859375 199.027344 56.117188 C 199.335938 54.378906 199.640625 52.613281 199.933594 50.867188 C 200.226562 49.128906 200.375 47.371094 200.375 45.648438 C 200.375 43.65625 199.988281 42.046875 199.222656 40.867188 C 198.460938 39.695312 197.160156 39.101562 195.359375 39.101562 C 194.101562 39.101562 192.804688 39.566406 191.503906 40.484375 C 190.199219 41.40625 188.96875 42.699219 187.84375 44.328125 C 186.71875 45.960938 185.761719 47.863281 184.992188 49.988281 L 184.976562 50.023438 L 184.613281 49.964844 L 184.617188 49.917969 C 184.710938 49.226562 184.789062 48.539062 184.851562 47.875 C 184.914062 47.226562 184.945312 46.601562 184.945312 46.019531 C 184.945312 44.242188 184.53125 42.65625 183.71875 41.308594 C 182.917969 39.976562 181.320312 38.914062 178.972656 38.148438 C 179.238281 39.207031 179.433594 40.320312 179.554688 41.464844 C 179.679688 42.640625 179.742188 43.847656 179.742188 45.046875 C 179.742188 46.585938 179.640625 48.222656 179.4375 49.90625 C 179.238281 51.589844 179.011719 53.242188 178.765625 54.808594 C 178.5 56.488281 178.28125 57.878906 178.089844 59.058594 C 177.890625 60.300781 177.789062 61.277344 177.789062 61.957031 C 177.789062 63.359375 178.175781 64.378906 178.933594 64.984375 C 179.695312 65.59375 180.964844 65.902344 182.714844 65.902344 C 182.988281 65.902344 183.292969 65.894531 183.617188 65.878906 C 183.925781 65.863281 184.261719 65.84375 184.609375 65.8125 C 184.492188 65.027344 184.414062 64.253906 184.386719 63.511719 C 184.355469 62.761719 184.339844 62.019531 184.339844 61.304688 C 184.339844 58.652344 184.621094 56.214844 185.179688 54.070312 C 185.734375 51.921875 186.4375 50.066406 187.273438 48.554688 C 188.109375 47.039062 188.996094 45.859375 189.910156 45.054688 C 190.828125 44.246094 191.644531 43.835938 192.335938 43.835938 Z M 200.378906 66.601562 L 199.539062 66.601562 C 197.003906 66.601562 195.140625 66.210938 194.003906 65.433594 C 192.867188 64.652344 192.289062 63.203125 192.289062 61.121094 C 192.289062 60.191406 192.382812 59.140625 192.566406 58 C 192.753906 56.84375 192.972656 55.628906 193.21875 54.398438 C 193.464844 53.144531 193.683594 51.871094 193.867188 50.613281 C 194.054688 49.351562 194.148438 48.121094 194.148438 46.949219 C 194.148438 45.941406 193.992188 45.175781 193.6875 44.675781 C 193.390625 44.183594 192.933594 43.933594 192.335938 43.933594 C 191.667969 43.933594 190.875 44.335938 189.972656 45.128906 C 189.070312 45.925781 188.1875 47.09375 187.359375 48.597656 C 186.527344 50.105469 185.824219 51.957031 185.269531 54.09375 C 184.71875 56.230469 184.4375 58.660156 184.4375 61.304688 C 184.4375 62.019531 184.453125 62.761719 184.484375 63.507812 C 184.511719 64.261719 184.589844 65.046875 184.714844 65.851562 L 184.722656 65.902344 L 184.671875 65.90625 C 184.300781 65.9375 183.945312 65.960938 183.625 65.976562 C 183.292969 65.992188 182.988281 66 182.714844 66 C 180.945312 66 179.652344 65.683594 178.871094 65.058594 C 178.089844 64.433594 177.691406 63.390625 177.691406 61.957031 C 177.691406 61.273438 177.792969 60.292969 177.996094 59.042969 C 178.183594 57.863281 178.40625 56.472656 178.667969 54.792969 C 178.914062 53.226562 179.140625 51.578125 179.34375 49.894531 C 179.542969 48.214844 179.644531 46.582031 179.644531 45.046875 C 179.644531 43.851562 179.582031 42.648438 179.460938 41.472656 C 179.335938 40.304688 179.132812 39.164062 178.855469 38.089844 L 178.835938 38.003906 L 178.917969 38.03125 C 181.335938 38.804688 182.976562 39.890625 183.800781 41.257812 C 184.625 42.625 185.039062 44.226562 185.039062 46.019531 C 185.039062 46.605469 185.007812 47.234375 184.945312 47.882812 C 184.886719 48.535156 184.808594 49.207031 184.71875 49.882812 L 184.914062 49.914062 C 185.683594 47.800781 186.640625 45.902344 187.765625 44.273438 C 188.894531 42.636719 190.132812 41.335938 191.449219 40.40625 C 192.765625 39.476562 194.082031 39.003906 195.359375 39.003906 C 197.195312 39.003906 198.519531 39.613281 199.300781 40.816406 C 200.078125 42.011719 200.472656 43.636719 200.472656 45.648438 C 200.472656 47.378906 200.324219 49.136719 200.03125 50.882812 C 199.734375 52.628906 199.429688 54.394531 199.125 56.132812 C 198.816406 57.871094 198.660156 59.65625 198.660156 61.445312 C 198.660156 62.886719 198.875 63.960938 199.304688 64.648438 C 199.730469 65.332031 200.398438 65.945312 201.285156 66.464844 L 201.414062 66.542969 L 201.265625 66.554688 C 200.949219 66.585938 200.652344 66.601562 200.378906 66.601562 Z M 200.378906 66.601562 " fill-opacity="1" fill-rule="nonzero"/><path fill="#ffffff" d="M 227.476562 66.554688 C 224.933594 66.554688 223.097656 66.167969 221.96875 65.394531 C 220.835938 64.621094 220.269531 63.195312 220.269531 61.121094 C 220.269531 60.191406 220.363281 59.152344 220.550781 58.007812 C 220.734375 56.863281 220.953125 55.660156 221.199219 54.40625 C 221.449219 53.152344 221.664062 51.890625 221.851562 50.621094 C 222.039062 49.351562 222.128906 48.128906 222.128906 46.949219 C 222.128906 44.90625 221.511719 43.882812 220.269531 43.882812 C 219.558594 43.882812 218.753906 44.289062 217.855469 45.09375 C 216.957031 45.898438 216.078125 47.058594 215.226562 48.578125 C 214.375 50.09375 213.679688 51.929688 213.136719 54.082031 C 212.59375 56.234375 212.324219 58.640625 212.324219 61.304688 C 212.324219 62.019531 212.339844 62.753906 212.371094 63.511719 C 212.398438 64.269531 212.476562 65.050781 212.601562 65.859375 C 212.230469 65.886719 211.882812 65.910156 211.554688 65.925781 C 211.230469 65.941406 210.929688 65.949219 210.648438 65.949219 C 208.882812 65.949219 207.613281 65.648438 206.839844 65.042969 C 206.0625 64.441406 205.675781 63.425781 205.675781 62 C 205.675781 60.980469 205.785156 59.601562 206 57.867188 C 206.21875 56.132812 206.488281 54.136719 206.816406 51.875 C 207.140625 49.613281 207.472656 47.183594 207.8125 44.582031 C 208.15625 41.980469 208.433594 39.292969 208.652344 36.519531 C 208.867188 33.75 208.976562 31 208.976562 28.277344 C 208.976562 27.007812 208.929688 25.898438 208.835938 24.953125 C 208.742188 24.007812 208.605469 23.304688 208.417969 22.839844 C 210.03125 23.273438 211.269531 23.847656 212.136719 24.558594 C 213.003906 25.273438 213.609375 26.15625 213.949219 27.207031 C 214.289062 28.261719 214.460938 29.515625 214.460938 30.96875 C 214.460938 32.238281 214.375 33.851562 214.207031 35.800781 C 214.035156 37.753906 213.800781 39.945312 213.507812 42.375 C 213.214844 44.804688 212.863281 47.351562 212.460938 50.015625 L 212.789062 50.109375 C 213.59375 47.941406 214.59375 46.03125 215.785156 44.371094 C 216.976562 42.714844 218.226562 41.414062 219.527344 40.46875 C 220.828125 39.527344 222.039062 39.054688 223.152344 39.054688 C 225.167969 39.054688 226.539062 39.648438 227.265625 40.839844 C 227.996094 42.035156 228.359375 43.636719 228.359375 45.648438 C 228.359375 47.382812 228.210938 49.125 227.917969 50.875 C 227.621094 52.625 227.320312 54.375 227.011719 56.125 C 226.699219 57.875 226.546875 59.648438 226.546875 61.445312 C 226.546875 62.902344 226.761719 63.976562 227.195312 64.671875 C 227.628906 65.371094 228.296875 65.980469 229.195312 66.507812 C 228.886719 66.539062 228.589844 66.554688 228.3125 66.554688 Z M 227.476562 66.554688 " fill-opacity="1" fill-rule="nonzero"/><path fill="#ffffff" d="M 220.269531 43.835938 C 221.535156 43.835938 222.179688 44.882812 222.179688 46.949219 C 222.179688 48.125 222.085938 49.363281 221.898438 50.628906 C 221.714844 51.886719 221.496094 53.160156 221.25 54.414062 C 221.003906 55.648438 220.785156 56.859375 220.597656 58.015625 C 220.414062 59.152344 220.320312 60.199219 220.320312 61.121094 C 220.320312 63.167969 220.882812 64.59375 221.996094 65.351562 C 223.113281 66.117188 224.957031 66.507812 227.476562 66.507812 L 228.3125 66.507812 C 228.539062 66.507812 228.785156 66.496094 229.042969 66.472656 C 228.207031 65.960938 227.570312 65.363281 227.15625 64.699219 C 226.71875 63.996094 226.5 62.902344 226.5 61.445312 C 226.5 59.652344 226.65625 57.859375 226.964844 56.117188 C 227.269531 54.382812 227.574219 52.617188 227.871094 50.867188 C 228.164062 49.128906 228.3125 47.371094 228.3125 45.648438 C 228.3125 43.65625 227.945312 42.046875 227.226562 40.867188 C 226.507812 39.695312 225.140625 39.101562 223.152344 39.101562 C 222.054688 39.101562 220.84375 39.574219 219.554688 40.507812 C 218.261719 41.449219 217.007812 42.757812 215.824219 44.398438 C 214.640625 46.046875 213.632812 47.972656 212.832031 50.125 L 212.816406 50.167969 L 212.410156 50.050781 L 212.414062 50.007812 C 212.816406 47.359375 213.167969 44.789062 213.460938 42.367188 C 213.753906 39.949219 213.988281 37.738281 214.15625 35.796875 C 214.328125 33.851562 214.414062 32.226562 214.414062 30.96875 C 214.414062 29.527344 214.242188 28.265625 213.902344 27.222656 C 213.566406 26.183594 212.960938 25.300781 212.105469 24.597656 C 211.265625 23.90625 210.050781 23.339844 208.496094 22.910156 C 208.667969 23.378906 208.796875 24.0625 208.882812 24.949219 C 208.976562 25.890625 209.023438 27.011719 209.023438 28.277344 C 209.023438 30.984375 208.914062 33.757812 208.699219 36.523438 C 208.484375 39.285156 208.203125 41.996094 207.863281 44.585938 C 207.515625 47.21875 207.179688 49.671875 206.863281 51.882812 C 206.535156 54.15625 206.261719 56.171875 206.050781 57.875 C 205.832031 59.597656 205.722656 60.984375 205.722656 62 C 205.722656 63.40625 206.109375 64.414062 206.867188 65.007812 C 207.628906 65.601562 208.902344 65.902344 210.648438 65.902344 C 210.921875 65.902344 211.226562 65.894531 211.554688 65.878906 C 211.863281 65.863281 212.195312 65.84375 212.546875 65.8125 C 212.425781 65.027344 212.351562 64.253906 212.320312 63.511719 C 212.289062 62.765625 212.273438 62.019531 212.273438 61.304688 C 212.273438 58.648438 212.550781 56.214844 213.089844 54.070312 C 213.628906 51.921875 214.335938 50.066406 215.1875 48.554688 C 216.035156 47.039062 216.921875 45.863281 217.820312 45.054688 C 218.726562 44.246094 219.550781 43.835938 220.269531 43.835938 Z M 228.3125 66.601562 L 227.476562 66.601562 C 224.9375 66.601562 223.074219 66.210938 221.941406 65.433594 C 220.800781 64.652344 220.222656 63.203125 220.222656 61.121094 C 220.222656 60.191406 220.316406 59.144531 220.503906 58 C 220.691406 56.84375 220.910156 55.628906 221.152344 54.398438 C 221.402344 53.144531 221.621094 51.871094 221.804688 50.613281 C 221.988281 49.351562 222.082031 48.121094 222.082031 46.949219 C 222.082031 45.941406 221.929688 45.175781 221.625 44.675781 C 221.324219 44.183594 220.871094 43.933594 220.269531 43.933594 C 219.574219 43.933594 218.773438 44.335938 217.886719 45.128906 C 216.996094 45.925781 216.117188 47.09375 215.269531 48.601562 C 214.421875 50.105469 213.722656 51.957031 213.183594 54.09375 C 212.644531 56.230469 212.371094 58.65625 212.371094 61.304688 C 212.371094 62.019531 212.386719 62.761719 212.417969 63.507812 C 212.449219 64.261719 212.527344 65.046875 212.648438 65.851562 L 212.65625 65.902344 L 212.605469 65.90625 C 212.234375 65.9375 211.882812 65.960938 211.558594 65.976562 C 211.230469 65.992188 210.921875 66 210.648438 66 C 208.878906 66 207.585938 65.691406 206.808594 65.082031 C 206.023438 64.472656 205.628906 63.4375 205.628906 62 C 205.628906 60.980469 205.738281 59.589844 205.953125 57.863281 C 206.167969 56.160156 206.441406 54.140625 206.765625 51.867188 C 207.085938 49.660156 207.421875 47.207031 207.765625 44.574219 C 208.105469 41.984375 208.386719 39.273438 208.601562 36.515625 C 208.820312 33.753906 208.929688 30.980469 208.929688 28.277344 C 208.929688 27.011719 208.882812 25.898438 208.789062 24.957031 C 208.695312 24.023438 208.558594 23.316406 208.375 22.859375 L 208.339844 22.769531 L 208.429688 22.792969 C 210.042969 23.226562 211.300781 23.808594 212.167969 24.523438 C 213.039062 25.238281 213.652344 26.136719 213.996094 27.191406 C 214.335938 28.246094 214.507812 29.515625 214.507812 30.96875 C 214.507812 32.230469 214.421875 33.855469 214.253906 35.804688 C 214.082031 37.746094 213.847656 39.960938 213.554688 42.378906 C 213.265625 44.789062 212.914062 47.34375 212.515625 49.980469 L 212.757812 50.050781 C 213.558594 47.90625 214.5625 45.984375 215.746094 44.34375 C 216.9375 42.691406 218.199219 41.375 219.5 40.429688 C 220.804688 39.484375 222.03125 39.003906 223.152344 39.003906 C 225.175781 39.003906 226.574219 39.613281 227.308594 40.816406 C 228.039062 42.011719 228.40625 43.636719 228.40625 45.648438 C 228.40625 47.378906 228.257812 49.140625 227.964844 50.882812 C 227.671875 52.632812 227.363281 54.402344 227.058594 56.132812 C 226.75 57.871094 226.59375 59.65625 226.59375 61.445312 C 226.59375 62.886719 226.8125 63.960938 227.238281 64.648438 C 227.664062 65.332031 228.332031 65.945312 229.21875 66.464844 L 229.347656 66.542969 L 229.199219 66.554688 C 228.886719 66.585938 228.585938 66.601562 228.3125 66.601562 Z M 228.3125 66.601562 " fill-opacity="1" fill-rule="nonzero"/><path fill="#ffffff" d="M 249.554688 57.867188 C 248.933594 59.507812 248.066406 60.972656 246.949219 62.257812 C 245.835938 63.542969 244.585938 64.558594 243.210938 65.300781 C 241.832031 66.042969 240.425781 66.414062 239.003906 66.414062 C 236.957031 66.414062 235.339844 65.601562 234.144531 63.976562 C 232.953125 62.351562 232.355469 60.175781 232.355469 57.449219 C 232.355469 55.125 232.710938 52.921875 233.425781 50.828125 C 234.136719 48.738281 235.121094 46.878906 236.375 45.253906 C 237.632812 43.628906 239.0625 42.34375 240.675781 41.398438 C 242.285156 40.453125 243.976562 39.980469 245.742188 39.980469 C 246.515625 39.980469 247.230469 40.058594 247.878906 40.214844 C 248.53125 40.371094 249.074219 40.601562 249.507812 40.910156 C 248.113281 41.40625 246.796875 42.195312 245.554688 43.28125 C 244.316406 44.363281 243.222656 45.648438 242.28125 47.136719 C 241.335938 48.621094 240.589844 50.210938 240.046875 51.898438 C 239.507812 53.585938 239.234375 55.28125 239.234375 56.984375 C 239.234375 58.5625 239.515625 59.796875 240.070312 60.679688 C 240.628906 61.5625 241.402344 62 242.394531 62 C 243.480469 62 244.535156 61.515625 245.554688 60.539062 C 246.578125 59.5625 247.484375 58.238281 248.277344 56.566406 C 249.066406 54.894531 249.695312 52.996094 250.160156 50.875 C 250.625 48.753906 250.855469 46.546875 250.855469 44.257812 C 250.855469 43.296875 250.832031 42.398438 250.785156 41.5625 C 250.738281 40.726562 250.667969 40.027344 250.578125 39.472656 C 250.855469 39.410156 251.117188 39.378906 251.367188 39.378906 L 252.621094 39.378906 C 254.234375 39.378906 255.417969 39.6875 256.175781 40.308594 C 256.9375 40.925781 257.316406 41.886719 257.316406 43.1875 C 257.316406 43.992188 257.207031 45.03125 256.992188 46.300781 C 256.773438 47.570312 256.519531 48.996094 256.222656 50.574219 C 255.929688 52.152344 255.667969 53.808594 255.433594 55.542969 C 255.203125 57.28125 255.085938 59 255.085938 60.699219 C 255.085938 62.03125 255.195312 63.1875 255.410156 64.160156 C 255.628906 65.136719 256 66.214844 256.527344 67.390625 C 254.078125 66.925781 252.34375 66.027344 251.320312 64.695312 C 250.296875 63.363281 249.785156 61.335938 249.785156 58.609375 L 249.785156 58.214844 C 249.785156 58.140625 249.800781 58.054688 249.832031 57.960938 Z M 249.554688 57.867188 " fill-opacity="1" fill-rule="nonzero"/><path fill="#ffffff" d="M 249.523438 57.808594 L 249.894531 57.929688 L 249.878906 57.976562 C 249.847656 58.0625 249.835938 58.144531 249.835938 58.214844 L 249.835938 58.609375 C 249.835938 61.3125 250.347656 63.351562 251.359375 64.667969 C 252.355469 65.964844 254.066406 66.859375 256.445312 67.324219 C 255.9375 66.183594 255.574219 65.121094 255.363281 64.171875 C 255.148438 63.199219 255.039062 62.03125 255.039062 60.699219 C 255.039062 59.003906 255.15625 57.265625 255.386719 55.539062 C 255.617188 53.800781 255.886719 52.128906 256.175781 50.566406 C 256.46875 48.988281 256.730469 47.550781 256.945312 46.292969 C 257.160156 45.027344 257.269531 43.984375 257.269531 43.1875 C 257.269531 41.910156 256.890625 40.953125 256.148438 40.34375 C 255.398438 39.734375 254.214844 39.425781 252.621094 39.425781 L 251.367188 39.425781 C 251.136719 39.425781 250.890625 39.453125 250.632812 39.507812 C 250.722656 40.058594 250.789062 40.746094 250.832031 41.558594 C 250.878906 42.390625 250.902344 43.300781 250.902344 44.257812 C 250.902344 46.542969 250.667969 48.773438 250.207031 50.886719 C 249.742188 53 249.109375 54.917969 248.320312 56.585938 C 247.53125 58.257812 246.613281 59.597656 245.589844 60.574219 C 244.5625 61.554688 243.488281 62.050781 242.394531 62.050781 C 241.390625 62.050781 240.59375 61.597656 240.03125 60.703125 C 239.472656 59.816406 239.1875 58.566406 239.1875 56.984375 C 239.1875 55.285156 239.460938 53.566406 240.003906 51.882812 C 240.542969 50.199219 241.296875 48.59375 242.238281 47.109375 C 243.179688 45.628906 244.285156 44.328125 245.523438 43.246094 C 246.734375 42.183594 248.039062 41.394531 249.402344 40.898438 C 248.988281 40.621094 248.472656 40.40625 247.871094 40.261719 C 247.222656 40.109375 246.507812 40.03125 245.742188 40.03125 C 243.992188 40.03125 242.296875 40.503906 240.699219 41.441406 C 239.101562 42.378906 237.660156 43.671875 236.414062 45.285156 C 235.167969 46.898438 234.179688 48.769531 233.46875 50.84375 C 232.761719 52.917969 232.402344 55.140625 232.402344 57.449219 C 232.402344 60.152344 233.003906 62.339844 234.183594 63.949219 C 235.363281 65.554688 236.984375 66.367188 239.003906 66.367188 C 240.414062 66.367188 241.820312 65.992188 243.1875 65.257812 C 244.554688 64.519531 245.808594 63.5 246.914062 62.226562 C 248.019531 60.953125 248.894531 59.480469 249.507812 57.851562 Z M 256.609375 67.457031 L 256.515625 67.4375 C 254.070312 66.972656 252.308594 66.0625 251.28125 64.726562 C 250.257812 63.390625 249.738281 61.335938 249.738281 58.609375 L 249.738281 58.214844 C 249.738281 58.144531 249.75 58.070312 249.773438 57.992188 L 249.582031 57.925781 C 248.964844 59.550781 248.089844 61.019531 246.988281 62.289062 C 245.875 63.570312 244.609375 64.597656 243.230469 65.34375 C 241.851562 66.085938 240.429688 66.464844 239.003906 66.464844 C 236.949219 66.464844 235.304688 65.636719 234.105469 64.003906 C 232.914062 62.378906 232.308594 60.171875 232.308594 57.449219 C 232.308594 55.128906 232.667969 52.898438 233.378906 50.8125 C 234.089844 48.730469 235.085938 46.847656 236.339844 45.226562 C 237.589844 43.601562 239.042969 42.300781 240.652344 41.359375 C 242.261719 40.414062 243.976562 39.933594 245.742188 39.933594 C 246.515625 39.933594 247.238281 40.011719 247.890625 40.167969 C 248.542969 40.324219 249.097656 40.558594 249.535156 40.871094 L 249.609375 40.925781 L 249.523438 40.957031 C 248.140625 41.449219 246.816406 42.242188 245.589844 43.316406 C 244.355469 44.394531 243.257812 45.6875 242.320312 47.160156 C 241.382812 48.636719 240.632812 50.234375 240.09375 51.914062 C 239.554688 53.585938 239.285156 55.292969 239.285156 56.984375 C 239.285156 58.546875 239.5625 59.78125 240.113281 60.652344 C 240.65625 61.515625 241.425781 61.953125 242.394531 61.953125 C 243.460938 61.953125 244.515625 61.464844 245.523438 60.503906 C 246.535156 59.535156 247.449219 58.207031 248.230469 56.546875 C 249.015625 54.882812 249.648438 52.972656 250.109375 50.867188 C 250.574219 48.757812 250.808594 46.535156 250.808594 44.257812 C 250.808594 43.300781 250.785156 42.394531 250.738281 41.5625 C 250.691406 40.734375 250.621094 40.03125 250.527344 39.480469 L 250.523438 39.433594 L 250.566406 39.425781 C 250.847656 39.363281 251.117188 39.328125 251.367188 39.328125 L 252.621094 39.328125 C 254.234375 39.328125 255.441406 39.644531 256.207031 40.269531 C 256.976562 40.898438 257.363281 41.878906 257.363281 43.1875 C 257.363281 43.988281 257.253906 45.039062 257.039062 46.308594 C 256.824219 47.566406 256.566406 49.003906 256.269531 50.582031 C 255.980469 52.144531 255.714844 53.816406 255.480469 55.550781 C 255.25 57.277344 255.132812 59.007812 255.132812 60.699219 C 255.132812 62.023438 255.242188 63.183594 255.457031 64.152344 C 255.671875 65.117188 256.046875 66.203125 256.570312 67.371094 Z M 256.609375 67.457031 " fill-opacity="1" fill-rule="nonzero"/><path fill="#ffffff" d="M 278.140625 57.867188 C 277.519531 59.507812 276.652344 60.972656 275.535156 62.257812 C 274.421875 63.542969 273.171875 64.558594 271.796875 65.300781 C 270.417969 66.042969 269.011719 66.414062 267.589844 66.414062 C 265.542969 66.414062 263.925781 65.601562 262.730469 63.976562 C 261.539062 62.351562 260.941406 60.175781 260.941406 57.449219 C 260.941406 55.125 261.296875 52.921875 262.011719 50.828125 C 262.722656 48.738281 263.707031 46.878906 264.960938 45.253906 C 266.21875 43.628906 267.648438 42.34375 269.261719 41.398438 C 270.871094 40.453125 272.5625 39.980469 274.328125 39.980469 C 275.101562 39.980469 275.816406 40.058594 276.464844 40.214844 C 277.117188 40.371094 277.660156 40.601562 278.09375 40.910156 C 276.699219 41.40625 275.382812 42.195312 274.140625 43.28125 C 272.902344 44.363281 271.808594 45.648438 270.867188 47.136719 C 269.917969 48.621094 269.175781 50.210938 268.632812 51.898438 C 268.09375 53.585938 267.820312 55.28125 267.820312 56.984375 C 267.820312 58.5625 268.101562 59.796875 268.65625 60.679688 C 269.214844 61.5625 269.988281 62 270.980469 62 C 272.066406 62 273.121094 61.515625 274.140625 60.539062 C 275.164062 59.5625 276.070312 58.238281 276.863281 56.566406 C 277.652344 54.894531 278.28125 52.996094 278.742188 50.875 C 279.207031 48.753906 279.441406 46.546875 279.441406 44.257812 C 279.441406 43.296875 279.417969 42.398438 279.371094 41.5625 C 279.324219 40.726562 279.253906 40.027344 279.164062 39.472656 C 279.441406 39.410156 279.703125 39.378906 279.953125 39.378906 L 281.207031 39.378906 C 282.820312 39.378906 284.003906 39.6875 284.761719 40.308594 C 285.523438 40.925781 285.902344 41.886719 285.902344 43.1875 C 285.902344 43.992188 285.792969 45.03125 285.578125 46.300781 C 285.359375 47.570312 285.105469 48.996094 284.808594 50.574219 C 284.515625 52.152344 284.253906 53.808594 284.019531 55.542969 C 283.789062 57.28125 283.671875 59 283.671875 60.699219 C 283.671875 62.03125 283.78125 63.1875 283.996094 64.160156 C 284.214844 65.136719 284.585938 66.214844 285.113281 67.390625 C 282.664062 66.925781 280.929688 66.027344 279.90625 64.695312 C 278.882812 63.363281 278.371094 61.335938 278.371094 58.609375 L 278.371094 58.214844 C 278.371094 58.140625 278.386719 58.054688 278.417969 57.960938 Z M 278.140625 57.867188 " fill-opacity="1" fill-rule="nonzero"/><path fill="#ffffff" d="M 278.109375 57.808594 L 278.480469 57.929688 L 278.464844 57.976562 C 278.433594 58.0625 278.421875 58.144531 278.421875 58.214844 L 278.421875 58.609375 C 278.421875 61.3125 278.933594 63.351562 279.945312 64.667969 C 280.941406 65.964844 282.652344 66.859375 285.03125 67.324219 C 284.523438 66.183594 284.160156 65.121094 283.949219 64.171875 C 283.734375 63.199219 283.621094 62.03125 283.621094 60.699219 C 283.621094 59.003906 283.742188 57.265625 283.972656 55.539062 C 284.203125 53.800781 284.472656 52.128906 284.761719 50.566406 C 285.054688 48.988281 285.3125 47.550781 285.53125 46.292969 C 285.746094 45.027344 285.855469 43.984375 285.855469 43.1875 C 285.855469 41.910156 285.476562 40.953125 284.734375 40.34375 C 283.984375 39.734375 282.800781 39.425781 281.207031 39.425781 L 279.953125 39.425781 C 279.722656 39.425781 279.476562 39.453125 279.21875 39.507812 C 279.308594 40.058594 279.375 40.746094 279.417969 41.558594 C 279.464844 42.390625 279.488281 43.300781 279.488281 44.257812 C 279.488281 46.542969 279.253906 48.773438 278.792969 50.886719 C 278.328125 53 277.695312 54.917969 276.90625 56.585938 C 276.117188 58.257812 275.199219 59.597656 274.175781 60.574219 C 273.148438 61.554688 272.074219 62.050781 270.980469 62.050781 C 269.976562 62.050781 269.179688 61.597656 268.617188 60.703125 C 268.058594 59.816406 267.773438 58.566406 267.773438 56.984375 C 267.773438 55.285156 268.046875 53.566406 268.589844 51.882812 C 269.128906 50.199219 269.882812 48.59375 270.824219 47.109375 C 271.765625 45.628906 272.871094 44.328125 274.109375 43.246094 C 275.320312 42.183594 276.625 41.394531 277.988281 40.898438 C 277.574219 40.621094 277.058594 40.40625 276.457031 40.261719 C 275.808594 40.109375 275.09375 40.03125 274.328125 40.03125 C 272.578125 40.03125 270.882812 40.503906 269.285156 41.441406 C 267.6875 42.378906 266.246094 43.671875 265 45.285156 C 263.753906 46.898438 262.761719 48.769531 262.054688 50.84375 C 261.347656 52.917969 260.988281 55.140625 260.988281 57.449219 C 260.988281 60.152344 261.589844 62.339844 262.769531 63.949219 C 263.949219 65.554688 265.570312 66.367188 267.589844 66.367188 C 269 66.367188 270.40625 65.992188 271.773438 65.257812 C 273.140625 64.519531 274.394531 63.5 275.5 62.226562 C 276.605469 60.953125 277.480469 59.480469 278.09375 57.851562 Z M 285.195312 67.457031 L 285.101562 67.4375 C 282.65625 66.972656 280.894531 66.0625 279.867188 64.726562 C 278.84375 63.390625 278.324219 61.335938 278.324219 58.609375 L 278.324219 58.214844 C 278.324219 58.144531 278.335938 58.070312 278.359375 57.992188 L 278.167969 57.925781 C 277.550781 59.550781 276.675781 61.019531 275.574219 62.289062 C 274.460938 63.570312 273.195312 64.597656 271.816406 65.34375 C 270.4375 66.085938 269.015625 66.464844 267.589844 66.464844 C 265.535156 66.464844 263.890625 65.636719 262.691406 64.003906 C 261.5 62.378906 260.894531 60.171875 260.894531 57.449219 C 260.894531 55.128906 261.253906 52.898438 261.964844 50.8125 C 262.675781 48.730469 263.671875 46.847656 264.925781 45.226562 C 266.175781 43.601562 267.628906 42.300781 269.238281 41.359375 C 270.847656 40.414062 272.5625 39.933594 274.328125 39.933594 C 275.101562 39.933594 275.824219 40.011719 276.476562 40.167969 C 277.128906 40.324219 277.683594 40.558594 278.121094 40.871094 L 278.195312 40.925781 L 278.109375 40.957031 C 276.726562 41.449219 275.402344 42.242188 274.175781 43.316406 C 272.941406 44.394531 271.84375 45.6875 270.90625 47.160156 C 269.96875 48.636719 269.21875 50.234375 268.679688 51.914062 C 268.140625 53.585938 267.871094 55.292969 267.871094 56.984375 C 267.871094 58.546875 268.148438 59.78125 268.699219 60.652344 C 269.246094 61.515625 270.011719 61.953125 270.980469 61.953125 C 272.046875 61.953125 273.101562 61.464844 274.109375 60.503906 C 275.121094 59.535156 276.035156 58.207031 276.816406 56.546875 C 277.601562 54.882812 278.234375 52.972656 278.695312 50.867188 C 279.160156 48.757812 279.394531 46.535156 279.394531 44.257812 C 279.394531 43.300781 279.371094 42.394531 279.324219 41.5625 C 279.277344 40.734375 279.207031 40.03125 279.113281 39.480469 L 279.109375 39.433594 L 279.152344 39.425781 C 279.433594 39.363281 279.703125 39.328125 279.953125 39.328125 L 281.207031 39.328125 C 282.820312 39.328125 284.027344 39.644531 284.792969 40.269531 C 285.5625 40.898438 285.949219 41.878906 285.949219 43.1875 C 285.949219 43.988281 285.839844 45.039062 285.625 46.308594 C 285.410156 47.566406 285.152344 49.003906 284.855469 50.582031 C 284.566406 52.144531 284.300781 53.816406 284.066406 55.550781 C 283.835938 57.277344 283.71875 59.007812 283.71875 60.699219 C 283.71875 62.023438 283.828125 63.183594 284.042969 64.152344 C 284.257812 65.117188 284.632812 66.203125 285.15625 67.371094 Z M 285.195312 67.457031 " fill-opacity="1" fill-rule="nonzero"/><path fill="#ffffff" d="M 298.453125 48.808594 C 299.257812 46.394531 300.125 44.464844 301.054688 43.023438 C 301.984375 41.585938 302.914062 40.554688 303.84375 39.9375 C 304.773438 39.316406 305.609375 39.007812 306.355469 39.007812 C 307.253906 39.007812 307.988281 39.253906 308.5625 39.75 C 309.136719 40.246094 309.570312 40.886719 309.863281 41.679688 C 310.15625 42.46875 310.304688 43.3125 310.304688 44.210938 C 310.304688 45.230469 310.125 46.246094 309.769531 47.253906 C 309.414062 48.257812 308.863281 49.09375 308.121094 49.761719 C 307.375 50.425781 306.382812 50.757812 305.144531 50.757812 C 304.835938 50.757812 304.542969 50.738281 304.261719 50.691406 C 303.984375 50.644531 303.71875 50.558594 303.472656 50.433594 C 303.75 50 304.046875 49.414062 304.355469 48.667969 C 304.664062 47.925781 304.835938 47.167969 304.867188 46.394531 C 304.929688 45.867188 304.875 45.433594 304.703125 45.09375 C 304.53125 44.75 304.199219 44.582031 303.703125 44.582031 C 303.148438 44.582031 302.519531 44.984375 301.820312 45.789062 C 301.125 46.59375 300.457031 47.75 299.824219 49.25 C 299.1875 50.753906 298.667969 52.570312 298.265625 54.707031 C 297.863281 56.84375 297.660156 59.246094 297.660156 61.910156 C 297.660156 62.527344 297.691406 63.164062 297.753906 63.8125 C 297.816406 64.464844 297.863281 65.144531 297.894531 65.859375 C 297.523438 65.886719 297.179688 65.910156 296.871094 65.925781 C 296.5625 65.941406 296.265625 65.949219 295.988281 65.949219 C 294.222656 65.949219 292.953125 65.640625 292.175781 65.019531 C 291.402344 64.402344 291.015625 63.378906 291.015625 61.957031 C 291.015625 61.273438 291.117188 60.304688 291.316406 59.050781 C 291.519531 57.796875 291.742188 56.378906 291.992188 54.800781 C 292.238281 53.222656 292.464844 51.589844 292.664062 49.898438 C 292.867188 48.210938 292.96875 46.59375 292.96875 45.046875 C 292.96875 43.839844 292.90625 42.644531 292.78125 41.46875 C 292.65625 40.292969 292.457031 39.160156 292.175781 38.078125 C 294.59375 38.851562 296.214844 39.921875 297.035156 41.28125 C 297.855469 42.644531 298.265625 44.226562 298.265625 46.019531 C 298.265625 46.332031 298.25 46.734375 298.21875 47.230469 C 298.1875 47.726562 298.140625 48.234375 298.082031 48.761719 Z M 298.453125 48.808594 " fill-opacity="1" fill-rule="nonzero"/><path fill="#ffffff" d="M 292.246094 38.148438 C 292.511719 39.207031 292.707031 40.320312 292.828125 41.464844 C 292.953125 42.640625 293.015625 43.847656 293.015625 45.046875 C 293.015625 46.585938 292.914062 48.222656 292.714844 49.90625 C 292.511719 51.589844 292.285156 53.242188 292.039062 54.808594 C 291.773438 56.488281 291.554688 57.878906 291.363281 59.058594 C 291.164062 60.300781 291.0625 61.277344 291.0625 61.957031 C 291.0625 63.359375 291.449219 64.378906 292.207031 64.984375 C 292.96875 65.59375 294.242188 65.902344 295.988281 65.902344 C 296.261719 65.902344 296.558594 65.894531 296.871094 65.878906 C 297.164062 65.863281 297.492188 65.84375 297.84375 65.8125 C 297.8125 65.121094 297.765625 64.449219 297.707031 63.816406 C 297.644531 63.175781 297.613281 62.53125 297.613281 61.910156 C 297.613281 59.253906 297.816406 56.828125 298.21875 54.699219 C 298.621094 52.570312 299.144531 50.730469 299.777344 49.230469 C 300.410156 47.734375 301.085938 46.566406 301.785156 45.757812 C 302.488281 44.945312 303.136719 44.53125 303.703125 44.53125 C 304.21875 44.53125 304.566406 44.714844 304.746094 45.070312 C 304.921875 45.417969 304.976562 45.867188 304.914062 46.398438 C 304.882812 47.171875 304.710938 47.941406 304.398438 48.6875 C 304.101562 49.40625 303.8125 49.988281 303.542969 50.414062 C 303.769531 50.523438 304.015625 50.601562 304.269531 50.640625 C 304.546875 50.6875 304.839844 50.710938 305.144531 50.710938 C 306.367188 50.710938 307.359375 50.378906 308.089844 49.726562 C 308.820312 49.066406 309.371094 48.230469 309.726562 47.234375 C 310.078125 46.238281 310.257812 45.21875 310.257812 44.210938 C 310.257812 43.320312 310.109375 42.476562 309.816406 41.695312 C 309.527344 40.917969 309.09375 40.273438 308.53125 39.785156 C 307.96875 39.300781 307.234375 39.054688 306.355469 39.054688 C 305.625 39.054688 304.789062 39.363281 303.871094 39.976562 C 302.949219 40.589844 302.015625 41.625 301.09375 43.050781 C 300.171875 44.480469 299.296875 46.425781 298.496094 48.824219 L 298.484375 48.859375 L 298.027344 48.804688 L 298.03125 48.757812 C 298.09375 48.234375 298.140625 47.71875 298.171875 47.226562 C 298.203125 46.71875 298.21875 46.324219 298.21875 46.019531 C 298.21875 44.242188 297.804688 42.65625 296.992188 41.308594 C 296.191406 39.976562 294.59375 38.914062 292.246094 38.148438 Z M 295.988281 66 C 294.21875 66 292.925781 65.683594 292.148438 65.058594 C 291.363281 64.433594 290.96875 63.390625 290.96875 61.957031 C 290.96875 61.273438 291.070312 60.292969 291.269531 59.042969 C 291.457031 57.863281 291.679688 56.472656 291.945312 54.792969 C 292.1875 53.226562 292.414062 51.578125 292.617188 49.894531 C 292.816406 48.214844 292.917969 46.582031 292.917969 45.046875 C 292.917969 43.851562 292.855469 42.648438 292.734375 41.472656 C 292.609375 40.304688 292.40625 39.164062 292.128906 38.089844 L 292.109375 38.003906 L 292.191406 38.03125 C 294.609375 38.804688 296.25 39.890625 297.074219 41.257812 C 297.898438 42.625 298.3125 44.226562 298.3125 46.019531 C 298.3125 46.328125 298.300781 46.722656 298.269531 47.230469 C 298.238281 47.710938 298.191406 48.210938 298.132812 48.71875 L 298.417969 48.757812 C 299.21875 46.367188 300.089844 44.429688 301.015625 43 C 301.941406 41.5625 302.886719 40.515625 303.816406 39.894531 C 304.75 39.273438 305.605469 38.957031 306.355469 38.957031 C 307.257812 38.957031 308.011719 39.210938 308.59375 39.714844 C 309.167969 40.210938 309.613281 40.867188 309.910156 41.660156 C 310.203125 42.453125 310.351562 43.308594 310.351562 44.210938 C 310.351562 45.230469 310.171875 46.261719 309.816406 47.269531 C 309.457031 48.277344 308.898438 49.128906 308.152344 49.796875 C 307.402344 50.46875 306.390625 50.808594 305.144531 50.808594 C 304.835938 50.808594 304.535156 50.785156 304.253906 50.738281 C 303.972656 50.691406 303.699219 50.601562 303.449219 50.476562 L 303.402344 50.453125 L 303.429688 50.410156 C 303.707031 49.980469 304.003906 49.390625 304.3125 48.652344 C 304.617188 47.914062 304.789062 47.15625 304.816406 46.390625 C 304.878906 45.875 304.824219 45.445312 304.660156 45.113281 C 304.496094 44.789062 304.183594 44.628906 303.703125 44.628906 C 303.164062 44.628906 302.542969 45.03125 301.859375 45.820312 C 301.167969 46.621094 300.496094 47.78125 299.867188 49.269531 C 299.234375 50.761719 298.714844 52.597656 298.3125 54.71875 C 297.914062 56.839844 297.710938 59.257812 297.710938 61.910156 C 297.710938 62.527344 297.742188 63.167969 297.804688 63.808594 C 297.863281 64.457031 297.910156 65.144531 297.941406 65.855469 L 297.945312 65.902344 L 297.898438 65.90625 C 297.527344 65.9375 297.183594 65.960938 296.875 65.976562 C 296.558594 65.992188 296.261719 66 295.988281 66 Z M 295.988281 66 " fill-opacity="1" fill-rule="nonzero"/></svg>